<svg xmlns="http://www.w3.org/2000/svg" width="131.191" height="137.08" viewBox="0 0 131.191 137.08">
  <g id="Grupo_10211" data-name="Grupo 10211" transform="translate(-192.023 -3182.358)">
    <path id="Trazado_4133" data-name="Trazado 4133" d="M310.347,3292.863a65.6,65.6,0,1,0-105.457,0Zm0,0" fill="#5fc6ff"/>
    <path id="Trazado_4134" data-name="Trazado 4134" d="M216.563,3284.16a33.825,33.825,0,0,0-12.064,8.167A65.922,65.922,0,0,0,216.563,3305Zm0,0" fill="#e8eaea"/>
    <path id="Trazado_4135" data-name="Trazado 4135" d="M286.4,3281.819H240.182v35.274a65.681,65.681,0,0,0,70.557-24.766,33.514,33.514,0,0,0-24.343-10.508Zm0,0" fill="#e8eaea"/>
    <path id="Trazado_4136" data-name="Trazado 4136" d="M257.941,3295.213l.056-12.084H239.638v33.812A65.338,65.338,0,0,0,253,3319.277v-9.463a7.547,7.547,0,0,1,3.342-6.024,1.788,1.788,0,0,0,.449-2.385c-2.27-3.616,1.151-6.192,1.151-6.192Zm0,0" fill="#d4d8d8"/>
    <path id="Trazado_4137" data-name="Trazado 4137" d="M258,3302.822a21,21,0,0,0,21-21h-42a21,21,0,0,0,21,21Zm0,0" fill="#ffaa7b"/>
    <path id="Trazado_4138" data-name="Trazado 4138" d="M239.638,3283.129v8.891a21,21,0,0,0,17.368,10.777,1.78,1.78,0,0,0-.216-1.392c-2.271-3.616,1.151-6.192,1.151-6.192l.056-12.084Zm0,0" fill="#f99c6e"/>
    <path id="Trazado_4139" data-name="Trazado 4139" d="M216.2,3284.306v20.4a65.4,65.4,0,0,0,24.344,12.483v-35.37h-11.7a33.3,33.3,0,0,0-12.64,2.487Zm0,0" fill="#f4456f"/>
    <path id="Trazado_4140" data-name="Trazado 4140" d="M228.373,3307.5v-17.29a8.385,8.385,0,0,1,8.384-8.386h-7.916a33.3,33.3,0,0,0-12.64,2.487v20.4a65.594,65.594,0,0,0,15.292,9.312,8.273,8.273,0,0,1-3.12-6.523Zm0,0" fill="#e9385a"/>
    <path id="Trazado_4141" data-name="Trazado 4141" d="M275.448,3281.819v35.165a65.44,65.44,0,0,0,24.346-12.9v-19.455a33.272,33.272,0,0,0-13.4-2.8Zm0,0" fill="#f4456f"/>
    <path id="Trazado_4142" data-name="Trazado 4142" d="M287.62,3305.283v-15.434a8.03,8.03,0,0,1,5.016-7.442,33.353,33.353,0,0,0-6.24-.588H275.448v35.165a65.138,65.138,0,0,0,14.491-6.052,7.939,7.939,0,0,1-2.319-5.649Zm0,0" fill="#e9385a"/>
    <path id="Trazado_4143" data-name="Trazado 4143" d="M302.807,3197.284a19.3,19.3,0,0,0-9.071,2.506,7.593,7.593,0,0,0-3.748,7.556l7.038,56.494c.482.068.97.116,1.465.14a15.664,15.664,0,0,0,15.327-21.339,10.516,10.516,0,0,1,2.77-11.512,19.541,19.541,0,0,0-13.781-33.845Zm0,0" fill="#ffe266"/>
    <path id="Trazado_4144" data-name="Trazado 4144" d="M313.82,3235.222c-3.365,1.316-4.774-.5-5.324-1.762a2.062,2.062,0,0,0-1.353-1.157,2.178,2.178,0,0,1-1.4-1.07,1.949,1.949,0,0,0-2.3-.959c-9,2.867-10.847-6.058-10.847-6.058l-.5.012,4.934,39.612c.482.068.971.116,1.466.14a15.661,15.661,0,0,0,15.326-21.339,10.233,10.233,0,0,1,0-7.419Zm0,0" fill="#ffc82e"/>
    <path id="Trazado_4145" data-name="Trazado 4145" d="M220.331,3199.179a19.3,19.3,0,0,0-7.9-1.9,19.54,19.54,0,0,0-13.779,33.845,10.518,10.518,0,0,1,2.768,11.512,15.664,15.664,0,0,0,15.327,21.339c.495-.024.984-.072,1.466-.14l6.934-55.674a8.747,8.747,0,0,0-4.815-8.987Zm0,0" fill="#ffe266"/>
    <path id="Trazado_4146" data-name="Trazado 4146" d="M207.86,3226.421a1.838,1.838,0,0,0-1.612-.47,3.13,3.13,0,0,1-3.36-1.3,1.908,1.908,0,0,0-1.893-.809c-7.13,1.24-8.58-7.02-8.58-7.021a19.474,19.474,0,0,0,6.235,14.307,10.517,10.517,0,0,1,2.769,11.512,15.662,15.662,0,0,0,15.327,21.339c.495-.024.983-.072,1.465-.14l4.174-33.506c-6.7,2.787-12.564-2.018-14.525-3.913Zm0,0" fill="#ffc82e"/>
    <path id="Trazado_4147" data-name="Trazado 4147" d="M297.778,3208.785a12.675,12.675,0,0,0-7.3,2.526l5.129,41.178a10.262,10.262,0,0,0,9.386-13.97,6.917,6.917,0,0,1,1.807-7.56,12.8,12.8,0,0,0-9.027-22.174Zm0,0" fill="#ffc82e"/>
    <path id="Trazado_4148" data-name="Trazado 4148" d="M305,3238.519a6.871,6.871,0,0,1,1.1-6.8,2.087,2.087,0,0,1-.359-.484,1.951,1.951,0,0,0-2.3-.959c-9,2.868-10.847-6.056-10.847-6.056l-.5.01,3.521,28.261a10.262,10.262,0,0,0,9.386-13.97Zm0,0" fill="#f7b126"/>
    <path id="Trazado_4149" data-name="Trazado 4149" d="M295.611,3254.5a2.008,2.008,0,0,1-.032-4.016,8.269,8.269,0,0,0,7.548-11.232,8.877,8.877,0,0,1,2.31-9.76c7.292-6.78,2.225-18.94-7.612-18.7a10.661,10.661,0,0,0-6.143,2.129,2.008,2.008,0,0,1-2.4-3.221,14.658,14.658,0,0,1,8.446-2.923c13.567-.32,20.377,16.415,10.442,25.653a4.888,4.888,0,0,0-1.3,5.36,12.3,12.3,0,0,1-11.223,16.707Zm0,0" fill="#f7b126"/>
    <path id="Trazado_4150" data-name="Trazado 4150" d="M306.868,3237.79a4.863,4.863,0,0,1,1.039-5.095,2.113,2.113,0,0,0-.764-.392,2.178,2.178,0,0,1-1.4-1.07,2.02,2.02,0,0,0-1.072-.932,8.837,8.837,0,0,0-1.544,8.948,8.268,8.268,0,0,1-7.546,11.232,2.008,2.008,0,0,0,.032,4.016h.034a12.3,12.3,0,0,0,11.223-16.707Zm0,0" fill="#f49e21"/>
    <path id="Trazado_4151" data-name="Trazado 4151" d="M224.527,3211.145a12.792,12.792,0,0,0-16.095,19.815,6.914,6.914,0,0,1,1.808,7.559,10.26,10.26,0,0,0,9.137,13.963Zm0,0" fill="#ffc82e"/>
    <path id="Trazado_4152" data-name="Trazado 4152" d="M207.86,3226.421a1.838,1.838,0,0,0-1.612-.47,3.99,3.99,0,0,1-1.114.052,12.81,12.81,0,0,0,3.3,4.957,6.912,6.912,0,0,1,1.807,7.559,10.262,10.262,0,0,0,9.138,13.963l2.747-22.048c-6.589,2.556-12.328-2.141-14.264-4.013Zm0,0" fill="#f7b126"/>
    <path id="Trazado_4153" data-name="Trazado 4153" d="M219.378,3254.49H219.3a12.256,12.256,0,0,1-10.927-16.7,4.884,4.884,0,0,0-1.3-5.36,14.8,14.8,0,0,1,18.626-22.921,2.009,2.009,0,0,1-2.329,3.273,10.783,10.783,0,0,0-13.562,16.707,8.881,8.881,0,0,1,2.312,9.76,8.241,8.241,0,0,0,7.347,11.226,2.008,2.008,0,0,1-.081,4.015Zm0,0" fill="#f7b126"/>
    <path id="Trazado_4154" data-name="Trazado 4154" d="M219.459,3250.475a8.242,8.242,0,0,1-7.348-11.226,8.88,8.88,0,0,0-2.311-9.76,10.791,10.791,0,0,1-2.478-3.422,1.9,1.9,0,0,0-1.074-.116,3.13,3.13,0,0,1-3.36-1.3,1.993,1.993,0,0,0-.286-.321,14.866,14.866,0,0,0,4.463,8.1,4.886,4.886,0,0,1,1.3,5.36,12.256,12.256,0,0,0,10.927,16.7h.082a2.008,2.008,0,0,0,.081-4.015Zm0,0" fill="#f49e21"/>
    <path id="Trazado_4155" data-name="Trazado 4155" d="M225.072,3206.768l-7.563,60.725a15.377,15.377,0,0,0,15.259,17.279h20.478v-78Zm0,0" fill="#dd2a44"/>
    <path id="Trazado_4156" data-name="Trazado 4156" d="M290.165,3206.768H262.637v78h19.832a15.377,15.377,0,0,0,15.26-17.279Zm0,0" fill="#f4456f"/>
    <path id="Trazado_4157" data-name="Trazado 4157" d="M273.291,3268.161a3.631,3.631,0,0,0-.622-2.881L262.637,3251.5v33.278h19.832c-10.753-3.53-9.945-12.944-9.178-16.613Zm0,0" fill="#dd2a44"/>
    <path id="Trazado_4158" data-name="Trazado 4158" d="M300.821,3224.216a3.336,3.336,0,0,1,0-6.672h0a3.336,3.336,0,1,1,0,6.672Zm0,0" fill="#dd2a44"/>
    <path id="Trazado_4159" data-name="Trazado 4159" d="M215.062,3224.216a3.336,3.336,0,1,1,0-6.672h0a3.336,3.336,0,0,1,0,6.672Zm0,0" fill="#dd2a44"/>
    <path id="Trazado_4160" data-name="Trazado 4160" d="M301.51,3232.691a2.008,2.008,0,1,1-2.008-2.008,2.009,2.009,0,0,1,2.008,2.008Zm0,0" fill="#3ba9f4"/>
    <path id="Trazado_4161" data-name="Trazado 4161" d="M216.379,3234.7a2.008,2.008,0,1,1,2.011-2.008,2,2,0,0,1-2.011,2.008Zm0,0" fill="#3ba9f4"/>
    <path id="Trazado_4162" data-name="Trazado 4162" d="M290.1,3199.109a9.64,9.64,0,0,0-3.315-6.155,44.541,44.541,0,0,0-58.556.767,9.7,9.7,0,0,0-3.163,6.02l-6.076,55.887a44.559,44.559,0,0,0,34.26,22.682v-74.3a4.8,4.8,0,0,1,4.776-4.82,4.7,4.7,0,0,1,4.615,4.7v74.423a44.554,44.554,0,0,0,33.729-21.755Zm0,0" fill="#dd2a44"/>
    <path id="Trazado_4163" data-name="Trazado 4163" d="M273.291,3268.161a3.631,3.631,0,0,0-.622-2.881L262.637,3251.5v26.814a44.342,44.342,0,0,0,10.718-2.5,17.21,17.21,0,0,1-.064-7.65Zm0,0" fill="#cc1f41"/>
    <path id="Trazado_4164" data-name="Trazado 4164" d="M253,3238.253c-4.3,0-5.239-2.923-5.421-4.648a2.119,2.119,0,0,0-.945-1.588,2.35,2.35,0,0,1-1.046-1.811,2.107,2.107,0,0,0-1.365-1.767,3.48,3.48,0,0,1-2.483-3.958,2.147,2.147,0,0,0-.8-1.941c-4.359-3.412-3.454-8.412-2.676-10.808a2.173,2.173,0,0,0-.575-2.241,3.954,3.954,0,0,1-1.179-4.082,2.14,2.14,0,0,0-.625-2.171,2.431,2.431,0,0,1-.805-1.908,2.112,2.112,0,0,0-1.087-1.839c-5.04-2.854-1.681-8.96-1.625-9.062a44.8,44.8,0,0,0-4.146,3.292,9.7,9.7,0,0,0-3.161,6.02l-6.077,55.887a44.562,44.562,0,0,0,34.261,22.681v-39.716Zm0,0" fill="#cc1f41"/>
    <path id="Trazado_4165" data-name="Trazado 4165" d="M254.276,3217.22a15.471,15.471,0,1,1-15.47-15.471,15.471,15.471,0,0,1,15.47,15.471Zm0,0" fill="#ffe266"/>
    <path id="Trazado_4166" data-name="Trazado 4166" d="M238.806,3232.691a15.412,15.412,0,0,0,6.99-1.671,2.988,2.988,0,0,1-.209-.814,2.1,2.1,0,0,0-1.365-1.767,3.479,3.479,0,0,1-2.483-3.958,2.139,2.139,0,0,0-.8-1.939c-4.358-3.412-3.454-8.413-2.676-10.81a2.171,2.171,0,0,0-.575-2.24,3.954,3.954,0,0,1-1.179-4.081,2.144,2.144,0,0,0-.624-2.173,2.291,2.291,0,0,1-.684-1.062,15.47,15.47,0,0,0,3.6,30.515Zm0,0" fill="#ffc82e"/>
    <path id="Trazado_4167" data-name="Trazado 4167" d="M292.589,3217.22a15.47,15.47,0,1,1-15.47-15.471,15.471,15.471,0,0,1,15.47,15.471Zm0,0" fill="#ffe266"/>
    <path id="Trazado_4168" data-name="Trazado 4168" d="M277.119,3232.691a15.409,15.409,0,0,0,6.99-1.671,2.95,2.95,0,0,1-.208-.814,2.107,2.107,0,0,0-1.366-1.767,3.481,3.481,0,0,1-2.484-3.958,2.134,2.134,0,0,0-.8-1.939c-4.357-3.412-3.452-8.413-2.676-10.81a2.169,2.169,0,0,0-.574-2.24,3.957,3.957,0,0,1-1.18-4.081,2.143,2.143,0,0,0-.623-2.173,2.3,2.3,0,0,1-.685-1.062,15.47,15.47,0,0,0,3.6,30.515Zm0,0" fill="#ffc82e"/>
    <path id="Trazado_4169" data-name="Trazado 4169" d="M277.119,3234.7A17.479,17.479,0,1,1,294.6,3217.22a17.5,17.5,0,0,1-17.478,17.479Zm0-30.942a13.463,13.463,0,1,0,13.462,13.462,13.477,13.477,0,0,0-13.462-13.462Zm0,0" fill="#2050bc"/>
    <path id="Trazado_4170" data-name="Trazado 4170" d="M277.119,3234.7a17.363,17.363,0,0,0,8.383-2.148,1.935,1.935,0,0,0-.555-.534,2.35,2.35,0,0,1-1.046-1.811,2.17,2.17,0,0,0-.454-1.107,13.46,13.46,0,1,1-8.718-25.124,2.052,2.052,0,0,0-.529-.737,2.431,2.431,0,0,1-.805-1.908,2.012,2.012,0,0,0-.325-1.111,17.478,17.478,0,0,0,4.049,34.48Zm0,0" fill="#12379e"/>
    <path id="Trazado_4171" data-name="Trazado 4171" d="M282.946,3213.6a6.868,6.868,0,1,1-9.464-2.185,6.869,6.869,0,0,1,9.464,2.185Zm0,0" fill="#ffc82e"/>
    <path id="Trazado_4172" data-name="Trazado 4172" d="M270.251,3217.22a6.866,6.866,0,0,0,9.682,6.264,2.113,2.113,0,0,0-.68-.944c-4.357-3.412-3.452-8.412-2.676-10.808a2.125,2.125,0,0,0-.015-1.356,6.867,6.867,0,0,0-6.311,6.844Zm0,0" fill="#f7b126"/>
    <path id="Trazado_4173" data-name="Trazado 4173" d="M238.806,3234.7a17.479,17.479,0,1,1,17.478-17.479,17.5,17.5,0,0,1-17.478,17.479Zm0-30.942a13.463,13.463,0,1,0,13.462,13.462,13.478,13.478,0,0,0-13.462-13.462Zm0,0" fill="#2050bc"/>
    <path id="Trazado_4174" data-name="Trazado 4174" d="M238.806,3234.7a17.356,17.356,0,0,0,8.382-2.148,1.935,1.935,0,0,0-.555-.534,2.35,2.35,0,0,1-1.046-1.811,2.162,2.162,0,0,0-.455-1.107,13.459,13.459,0,1,1-8.716-25.124,2.063,2.063,0,0,0-.529-.737,2.427,2.427,0,0,1-.8-1.908,2.045,2.045,0,0,0-.325-1.111,17.477,17.477,0,0,0,4.048,34.48Zm0,0" fill="#12379e"/>
    <path id="Trazado_4175" data-name="Trazado 4175" d="M244.629,3213.591a6.868,6.868,0,1,1-9.464-2.184,6.869,6.869,0,0,1,9.464,2.184Zm0,0" fill="#ffc82e"/>
    <path id="Trazado_4176" data-name="Trazado 4176" d="M231.938,3217.22a6.865,6.865,0,0,0,9.681,6.264,2.117,2.117,0,0,0-.678-.944c-4.359-3.412-3.454-8.412-2.676-10.808a2.145,2.145,0,0,0-.016-1.356,6.868,6.868,0,0,0-6.311,6.844Zm0,0" fill="#f7b126"/>
    <path id="Trazado_4177" data-name="Trazado 4177" d="M281.945,3243.913a8.634,8.634,0,0,0-7.044-3.652H262.3v28.763a26.672,26.672,0,0,0,20.719-17.33,8.543,8.543,0,0,0-1.075-7.781Zm0,0" fill="#e8eaea"/>
    <path id="Trazado_4178" data-name="Trazado 4178" d="M253.581,3240.261h-12.6a8.588,8.588,0,0,0-8.118,11.434,26.672,26.672,0,0,0,20.718,17.329Zm0,0" fill="#d4d8d8"/>
    <path id="Trazado_4179" data-name="Trazado 4179" d="M271.544,3263.317c-6.2-.625-4.464-5.718-4.464-5.718l-3.939-2.774-2.463,4.052-2.736,8.5.506,2a26.545,26.545,0,0,0,13-3.685,2.739,2.739,0,0,1,.1-2.377Zm0,0" fill="#d4d8d8"/>
    <path id="Trazado_4180" data-name="Trazado 4180" d="M274.9,3238.253H262.41v4.016H274.9a6.621,6.621,0,0,1,5.4,2.8,6.536,6.536,0,0,1,.823,5.95,24.662,24.662,0,0,1-18.718,15.944v4.079a28.691,28.691,0,0,0,22.5-18.677,10.6,10.6,0,0,0-10.011-14.115Zm0,0" fill="#f4456f"/>
    <path id="Trazado_4181" data-name="Trazado 4181" d="M271.544,3263.317l-.065-.008a24.586,24.586,0,0,1-13.537,4.072l1.012,4a28.6,28.6,0,0,0,14.257-4.412,2.431,2.431,0,0,1-1.667-3.648Zm0,0" fill="#dd2a44"/>
    <path id="Trazado_4182" data-name="Trazado 4182" d="M273.018,3249.453H242.865a.659.659,0,0,0-.6.939,17.429,17.429,0,0,0,31.345,0,.657.657,0,0,0-.6-.939Zm0,0" fill="#2050bc"/>
    <path id="Trazado_4183" data-name="Trazado 4183" d="M273.018,3249.453h-9.877c.81.414,5.527,3.076,3.939,8.146a17.454,17.454,0,0,0,6.533-7.207.657.657,0,0,0-.6-.939Zm0,0" fill="#12379e"/>
    <path id="Trazado_4184" data-name="Trazado 4184" d="M253.472,3266.966a24.664,24.664,0,0,1-18.717-15.944,6.584,6.584,0,0,1,6.226-8.753h12.492v-4.016H240.981a10.6,10.6,0,0,0-10.01,14.115,28.69,28.69,0,0,0,22.5,18.677v-4.079Zm0,0" fill="#dd2a44"/>
    <path id="Trazado_4185" data-name="Trazado 4185" d="M257.941,3295.213a4.943,4.943,0,0,1-4.942-4.944v-86.382a4.943,4.943,0,1,1,9.885,0v86.382a4.943,4.943,0,0,1-4.943,4.944Zm0,0" fill="#3ba9f4"/>
    <path id="Trazado_4186" data-name="Trazado 4186" d="M257.941,3243.093A4.943,4.943,0,0,1,253,3238.15v52.119a4.943,4.943,0,0,0,9.885,0V3238.15a4.943,4.943,0,0,1-4.943,4.943Zm0,0" fill="#0b92dd"/>
  </g>
</svg>
