<svg xmlns="http://www.w3.org/2000/svg" width="171.56" height="209.945" viewBox="0 0 171.56 209.945">
  <g id="Grupo_10238" data-name="Grupo 10238" transform="translate(-919.853 -5054.688)">
    <path id="Trazado_4343" data-name="Trazado 4343" d="M1072.34,5173.451c-3.8-3.2-7.586-6.307-9.054-11.983-3.616-13.985,2.48-16.137-1.7-29.978s-14.41-10.608-18.587-24.449a17.9,17.9,0,0,1-.806-4.916,36.6,36.6,0,0,0,1.26-6.514c.044-.387.074-.782.1-1.165a37.17,37.17,0,1,0-68.279,17.657c.206.323.419.633.634.953l.013.008a36.865,36.865,0,0,0,4.279,5.114,18.259,18.259,0,0,1,1.662,4.674c3.056,14.13-7.451,16.26-4.4,30.391s9.431,13.058,13.048,27.043c1.468,5.676-.333,10.226-2.12,14.872-1.764,4.651-3.514,9.4-1.953,15.437a32.39,32.39,0,0,0,39.475,23.253l32.37-8.37a32.382,32.382,0,0,0,23.244-39.472C1079.969,5179.968,1076.137,5176.664,1072.34,5173.451Z" fill="#40327a"/>
    <path id="Trazado_4344" data-name="Trazado 4344" d="M964.114,5176.5a12.922,12.922,0,0,1,1.041-4.555l-.014-.006,10.79-25.293.008,0a13,13,0,0,1,12.5-7.893l48.3,2.006a8,8,0,0,1,7.339,10.265l-22.369,75.507h0a23.251,23.251,0,0,1-46.461-1.929l-.165-34.732A13,13,0,0,1,964.114,5176.5Z" fill="#ffc7bd"/>
    <path id="Trazado_4345" data-name="Trazado 4345" d="M1037.615,5264.633v-9.772a34.628,34.628,0,0,0-13.381-27.343l-2.506-1.947h-46.5a57.63,57.63,0,0,0-6,25.6v13.467Z" fill="#8b77e8"/>
    <path id="Trazado_4346" data-name="Trazado 4346" d="M919.923,5176.251l8.617-67.076-3.526-10.241h.007a6.987,6.987,0,0,1,9.629-8.589v-11.367a2,2,0,0,1,4,0v20h-.013l.013,9.668h0l.088,68.809Z" fill="#ff95a9"/>
    <path id="Trazado_4347" data-name="Trazado 4347" d="M919.934,5176.25h-.015l7.584-59.01,11.161.715.057,44.156,42.253-21.366a13,13,0,1,1,11.411,23.2l.026.061-59.818,22.315-.006-.015a9.422,9.422,0,0,1-12.653-10.055Z" fill="#ffc7bd"/>
    <rect id="Rectángulo_4148" data-name="Rectángulo 4148" width="6.246" height="2" transform="matrix(0.127, -0.992, 0.992, 0.127, 925.028, 5128.647)" fill="#ff95a9"/>
    <rect id="Rectángulo_4149" data-name="Rectángulo 4149" width="3.425" height="2" transform="translate(924.252 5134.691) rotate(-82.675)" fill="#ff95a9"/>
    <path id="Trazado_4348" data-name="Trazado 4348" d="M977.108,5191.039a13.939,13.939,0,0,0,2.683-.259l-.383-1.963a11.98,11.98,0,0,1-13.334-16.48l.393-.918-.014-.007,6.9-16.177-1.84-.785-7.684,18.014.044.019a13.793,13.793,0,0,0-.759,3.975,14.014,14.014,0,0,0,13.406,14.568C976.717,5191.034,976.912,5191.039,977.108,5191.039Z" fill="#ff95a9"/>
    <path id="Trazado_4349" data-name="Trazado 4349" d="M983.088,5189.693a13.942,13.942,0,0,0,4.31-3.186l-1.473-1.351a11.988,11.988,0,0,1-3.7,2.73Z" fill="#ff95a9"/>
    <path id="Trazado_4350" data-name="Trazado 4350" d="M981.38,5102.48l7.923-30.346,36.878,7.231-3.658,18.657.981.192a5,5,0,1,1-1.924,9.813l-.98-.192-4.447,32.072,9.933.413-36.2,21.65.96-23.113,3.277.136c.015-.35.044-.7.093-1.055l2.079-15-2.352-.462A16.207,16.207,0,0,1,981.38,5102.48Z" fill="#ff95a9"/>
    <path id="Trazado_4351" data-name="Trazado 4351" d="M1022.523,5098.022l.981.192,5.558-28.345-29.21-5.727a14.233,14.233,0,0,0-16.707,11.228l-.108.556.982.192a39.134,39.134,0,0,1,21.627,12.3h0a30.534,30.534,0,0,0,16.877,9.6Z" fill="#40327a"/>
    <path id="Trazado_4352" data-name="Trazado 4352" d="M1030.751,5240.024l9.475-1.6,32.491-57.928,15.808,10.274-41.1,55.178-.009,0a4.98,4.98,0,0,1-1.616,1.386l.008.021-10.543,5.73,0-.006a7,7,0,1,1-4.51-13.047Z" fill="#ff95a9"/>
    <path id="Trazado_4353" data-name="Trazado 4353" d="M1024.658,5147.022a12.918,12.918,0,0,1,19.232-3.442l.007-.012,42.949,34.16-.006.009a9.44,9.44,0,0,1,2.355,12,9.574,9.574,0,0,1-.677,1.027l.011.007-35.543,47.711-9.377-6.1,24.628-43.908-39.158-23.609A13,13,0,0,1,1024.658,5147.022Z" fill="#ffc7bd"/>
    <path id="Trazado_4354" data-name="Trazado 4354" d="M1086.036,5195.79l3.912-5.252-.046-.032c.057-.094.112-.188.165-.282a10.389,10.389,0,0,0-1.915-12.671l.022-.033-.7-.575-13.592-10.81-1.245,1.565,13.585,10.819a8.363,8.363,0,0,1,1.5,11.645l-.618.828.012.009-2.678,3.593Z" fill="#ff95a9"/>
    <rect id="Rectángulo_4150" data-name="Rectángulo 4150" width="1.999" height="4.799" transform="translate(1065.834 5162.292) rotate(-51.49)" fill="#ff95a9"/>
    <rect id="Rectángulo_4151" data-name="Rectángulo 4151" width="7.278" height="2" transform="translate(998.42 5224.579) rotate(-0.061)" fill="#624ac9"/>
    <rect id="Rectángulo_4152" data-name="Rectángulo 4152" width="16.625" height="2" transform="translate(977.766 5224.571)" fill="#624ac9"/>
    <path id="Trazado_4355" data-name="Trazado 4355" d="M996.837,5109.11a15.12,15.12,0,0,0,2.862-.275l-.379-1.963a13.078,13.078,0,0,1-5.745-.175,13.376,13.376,0,0,1-2.512-.918l-.871,1.8a15.385,15.385,0,0,0,2.889,1.054A15.116,15.116,0,0,0,996.837,5109.11Z" fill="#e5659b"/>
  </g>
</svg>
