<svg xmlns="http://www.w3.org/2000/svg" width="123.962" height="123.962" viewBox="0 0 123.962 123.962">
  <g id="Grupo_10240" data-name="Grupo 10240" transform="translate(-442.882 -5434.718)">
    <circle id="Elipse_90" data-name="Elipse 90" cx="61.981" cy="61.981" r="61.981" transform="translate(442.882 5434.718)" fill="#5fc6ff"/>
    <g id="Grupo_10239" data-name="Grupo 10239">
      <path id="Trazado_4358" data-name="Trazado 4358" d="M475.665,5504.389a13.287,13.287,0,1,1-4.4-25.96,13.287,13.287,0,0,1,10.347-21.591,13.487,13.487,0,0,1,9.966,4.982,13.287,13.287,0,0,1,26.574,0,13.519,13.519,0,0,1,9.966-4.982,13.287,13.287,0,0,1,10.347,21.591,13.287,13.287,0,1,1-4.4,25.943Zm0,0" fill="#ecf0f1"/>
      <path id="Trazado_4359" data-name="Trazado 4359" d="M508.185,5516.016a81.61,81.61,0,0,1-3.422,26.574,3.323,3.323,0,0,1-3.222,2.275,3.4,3.4,0,0,1-.98-.15,3.322,3.322,0,0,1-2.192-4.152,75.228,75.228,0,0,0,3.172-24.581Zm0,0" fill="#7c9d24"/>
      <path id="Trazado_4360" data-name="Trazado 4360" d="M471.48,5483.877a1.662,1.662,0,0,1-1.5-.947,6.642,6.642,0,0,1,3.189-8.852,1.661,1.661,0,1,1,1.412,3.006,3.323,3.323,0,0,0-1.661,4.418,1.661,1.661,0,0,1-.8,2.209,1.478,1.478,0,0,1-.647.166Zm0,0" fill="#bdc3c7"/>
      <path id="Trazado_4361" data-name="Trazado 4361" d="M488.852,5466.089a1.663,1.663,0,0,1-1.511-2.342,6.644,6.644,0,0,1,8.769-3.322,1.673,1.673,0,1,1-1.362,3.056,3.321,3.321,0,0,0-4.384,1.661,1.66,1.66,0,0,1-1.512.947Zm0,0" fill="#bdc3c7"/>
      <path id="Trazado_4362" data-name="Trazado 4362" d="M538.263,5483.877a1.5,1.5,0,0,1-.7-.166,1.661,1.661,0,0,1-.8-2.209,3.323,3.323,0,0,0-1.661-4.418,1.664,1.664,0,1,1,1.428-3.006,6.642,6.642,0,0,1,3.206,8.852,1.662,1.662,0,0,1-1.479.947Zm0,0" fill="#bdc3c7"/>
      <path id="Trazado_4363" data-name="Trazado 4363" d="M520.891,5466.089a1.66,1.66,0,0,1-1.512-1,3.433,3.433,0,0,0-4.384-1.744,1.661,1.661,0,1,1-1.363-3.022,6.637,6.637,0,0,1,8.786,3.354,1.827,1.827,0,0,1-1.527,2.409Zm0,0" fill="#bdc3c7"/>
      <path id="Trazado_4364" data-name="Trazado 4364" d="M504.863,5496.7c0-6.644,3.322-8.3,8.3-8.3a7.193,7.193,0,0,0,6.644-3.322c3.322,8.3-1.661,11.626-1.661,11.626,4.983-1.661,4.983,0,8.3,1.661s11.626,0,11.626,0-1.661,8.3-11.626,8.3-14.948,0-14.948,4.983-6.644,4.983-6.644,4.983-6.644,0-6.644-4.983-4.982-4.983-14.948-4.983-11.626-8.3-11.626-8.3,8.305,1.661,11.626,0,3.322-3.322,8.3-1.661c0,0-4.983-3.322-1.661-11.626a7.192,7.192,0,0,0,6.644,3.322c4.982,0,8.3,1.66,8.3,8.3Zm0,0" fill="#a5d130"/>
    </g>
  </g>
</svg>
