<svg xmlns="http://www.w3.org/2000/svg" width="210.649" height="209.946" viewBox="0 0 210.649 209.946">
  <g id="Grupo_10242" data-name="Grupo 10242" transform="translate(-1044.351 -5906.339)">
    <path id="Trazado_4365" data-name="Trazado 4365" d="M1216.728,6037.933c-2.978-3.982-5.954-7.867-6.093-13.727-.342-14.442,6.083-15.152,5.162-29.58s-11.621-13.6-12.542-28.033a17.885,17.885,0,0,1,.332-4.972,36.507,36.507,0,0,0,2.708-6.056c.13-.367.25-.745.359-1.112a37.17,37.17,0,1,0-70.505,1.672c.127.362.264.712.4,1.073l.011.011a36.88,36.88,0,0,0,3,5.953,18.206,18.206,0,0,1,.557,4.929c-.236,14.455-10.952,14.141-11.188,28.6s6.216,14.86,6.558,29.3c.139,5.86-2.649,9.882-5.445,14-2.775,4.128-5.558,8.354-5.411,14.589a32.39,32.39,0,0,0,33.155,31.618l33.426-.793a32.381,32.381,0,0,0,31.608-33.155C1222.676,6046.013,1219.695,6041.924,1216.728,6037.933Z" fill="#40327a"/>
    <g id="Grupo_10241" data-name="Grupo 10241">
      <path id="Trazado_4366" data-name="Trazado 4366" d="M1056.178,6087.324l7.849-7.464,64.589-20.04-6.725-17.613-62.548,28.679h0l-10.908,5a7,7,0,1,0,7.739,11.431Z" fill="#ff95a9"/>
      <path id="Trazado_4367" data-name="Trazado 4367" d="M1129.765,6059.38a9.371,9.371,0,0,0,3.7-3.031l.019.012,31.75-44.759-.011-.007a12.994,12.994,0,1,0-22.068-13.62h0l-24.165,45.56L1067.8,6067l3.988,10.448,56.824-17.627-.005-.013A9.183,9.183,0,0,0,1129.765,6059.38Z" fill="#ffc7bd"/>
      <path id="Trazado_4368" data-name="Trazado 4368" d="M1105.224,6068.128l-.592-1.91,22.687-7.038h0l1-.323a8.326,8.326,0,0,0,1.033-.385,8.443,8.443,0,0,0,3.305-2.709l.538-.74.01,0,12.516-17.644,1.631,1.157-13.586,19.154-.063-.038a10.448,10.448,0,0,1-3.518,2.633c-.094.043-.19.086-.289.127l.015.04-1,.324Z" fill="#ff95a9"/>
      <rect id="Rectángulo_4157" data-name="Rectángulo 4157" width="12.406" height="2" transform="translate(1089.008 6071.062) rotate(-17.211)" fill="#ff95a9"/>
      <rect id="Rectángulo_4158" data-name="Rectángulo 4158" width="14.813" height="2" transform="matrix(0.579, -0.815, 0.815, 0.579, 1149.99, 6031.431)" fill="#ff95a9"/>
    </g>
    <path id="Trazado_4369" data-name="Trazado 4369" d="M1142.977,6076.781l-.282-72.8a13,13,0,0,1,13.551-13.039l48.3,2.048a8,8,0,0,1,7.33,10.272l-22.435,75.487h0a23.251,23.251,0,1,1-46.46-1.97Z" fill="#ffc7bd"/>
    <path id="Trazado_4370" data-name="Trazado 4370" d="M1205.35,6116.285v-9.225a34.629,34.629,0,0,0-13.381-27.343l-2.506-1.948h-46.5a57.641,57.641,0,0,0-6,25.6v12.92Z" fill="#8b77e8"/>
    <path id="Trazado_4371" data-name="Trazado 4371" d="M1145.747,5959.323l3.26-31.194,37.546,1.592-.8,18.995,1,.042a5,5,0,0,1-.423,9.991l-1-.042-.269,6.345-.464,10.956-.093,2.181-.59,13.928h0l9.984.423-36.22,21.619.98-23.113,3.275.139h0l.591-13.928-1.339-.057A16.206,16.206,0,0,1,1145.747,5959.323Z" fill="#ff95a9"/>
    <path id="Trazado_4372" data-name="Trazado 4372" d="M1193.038,6091.983l9.2.17,35.345-55.712,15.228,11.116-44.03,52.871-.025-.019a4.978,4.978,0,0,1-2.276,1.533l0,.022-11.421,3.682v-.007a7,7,0,1,1-2.019-13.656Z" fill="#ff95a9"/>
    <path id="Trazado_4373" data-name="Trazado 4373" d="M1193.2,5998.069a12.912,12.912,0,0,1,19.477-1.515l.009-.01,38.3,37.244a9.373,9.373,0,0,1,1.813,13.763l.011.007-38.075,45.717-9.033-6.595,27.121-42.748-37-27.667h0A13,13,0,0,1,1193.2,5998.069Z" fill="#ffc7bd"/>
    <rect id="Rectángulo_4159" data-name="Rectángulo 4159" width="2" height="37.007" transform="translate(1217.36 6002.653) rotate(-45.956)" fill="#ff95a9"/>
    <rect id="Rectángulo_4160" data-name="Rectángulo 4160" width="2" height="3.536" transform="translate(1246.388 6030.726) rotate(-44.998)" fill="#ff95a9"/>
    <rect id="Rectángulo_4161" data-name="Rectángulo 4161" width="12.717" height="2" transform="translate(1142.883 6076.765)" fill="#624ac9"/>
    <path id="Trazado_4374" data-name="Trazado 4374" d="M1185.748,5948.716l1,.042,1.224-28.858-29.741-1.261a14.232,14.232,0,0,0-14.823,13.617l-.024.566,1,.042a39.132,39.132,0,0,1,23.234,8.9h0a30.536,30.536,0,0,0,18.131,6.948Z" fill="#40327a"/>
    <path id="Trazado_4375" data-name="Trazado 4375" d="M1158.1,5963.413a15.019,15.019,0,0,0,5.74-1.132l-.759-1.85a13.016,13.016,0,0,1-5.667.964,13.268,13.268,0,0,1-2.643-.4l-.5,1.937a15.323,15.323,0,0,0,3.041.463C1157.581,5963.406,1157.844,5963.413,1158.1,5963.413Z" fill="#e5659b"/>
  </g>
</svg>
