<svg xmlns="http://www.w3.org/2000/svg" width="527.821" height="425.403" viewBox="0 0 527.821 425.403">
  <g id="Grupo_10623" data-name="Grupo 10623" transform="translate(783.642 -10150.342)">
    <g id="Grupo_10586" data-name="Grupo 10586">
      <path id="Trazado_4830" data-name="Trazado 4830" d="M-552.908,10562.862h0Z" fill="#d9d4fc"/>
      <rect id="Rectángulo_4372" data-name="Rectángulo 4372" width="167.32" height="1.587" transform="translate(-552.908 10562.069)" fill="#beb6fc"/>
    </g>
    <g id="Grupo_10587" data-name="Grupo 10587">
      <path id="Trazado_4831" data-name="Trazado 4831" d="M-425.991,10574.952h0Z" fill="#d9d4fc"/>
      <rect id="Rectángulo_4373" data-name="Rectángulo 4373" width="72.8" height="1.587" transform="translate(-425.991 10574.158)" fill="#beb6fc"/>
    </g>
    <g id="Grupo_10588" data-name="Grupo 10588">
      <path id="Trazado_4832" data-name="Trazado 4832" d="M-510.477,10574.952h0Z" fill="#d9d4fc"/>
      <rect id="Rectángulo_4374" data-name="Rectángulo 4374" width="179.99" height="1.587" transform="translate(-510.477 10574.158)" fill="#beb6fc"/>
    </g>
    <g id="Grupo_10589" data-name="Grupo 10589">
      <path id="Trazado_4833" data-name="Trazado 4833" d="M-645.9,10574.952h0Z" fill="#d9d4fc"/>
      <rect id="Rectángulo_4375" data-name="Rectángulo 4375" width="26.736" height="1.587" transform="translate(-645.904 10574.158)" fill="#beb6fc"/>
    </g>
    <g id="Grupo_10590" data-name="Grupo 10590">
      <path id="Trazado_4834" data-name="Trazado 4834" d="M-611.265,10574.952h0Z" fill="#d9d4fc"/>
      <rect id="Rectángulo_4376" data-name="Rectángulo 4376" width="8.076" height="1.587" transform="translate(-611.265 10574.158)" fill="#beb6fc"/>
    </g>
    <g id="Grupo_10591" data-name="Grupo 10591">
      <path id="Trazado_4835" data-name="Trazado 4835" d="M-365.254,10563.048h0Z" fill="#d9d4fc"/>
      <rect id="Rectángulo_4377" data-name="Rectángulo 4377" width="34.025" height="1.587" transform="translate(-365.254 10562.254)" fill="#beb6fc"/>
    </g>
    <g id="Grupo_10592" data-name="Grupo 10592">
      <path id="Trazado_4836" data-name="Trazado 4836" d="M-559.574,10562.862h0Z" fill="#d9d4fc"/>
      <rect id="Rectángulo_4378" data-name="Rectángulo 4378" width="69.718" height="1.587" transform="translate(-559.574 10562.069)" fill="#beb6fc"/>
    </g>
    <g id="Grupo_10593" data-name="Grupo 10593">
      <path id="Trazado_4837" data-name="Trazado 4837" d="M-696.46,10562.862h0Z" fill="#d9d4fc"/>
      <rect id="Rectángulo_4379" data-name="Rectángulo 4379" width="121.913" height="1.587" transform="translate(-696.46 10562.069)" fill="#beb6fc"/>
    </g>
    <g id="Grupo_10594" data-name="Grupo 10594">
      <path id="Trazado_4838" data-name="Trazado 4838" d="M-732.288,10562.862h0Z" fill="#d9d4fc"/>
      <rect id="Rectángulo_4380" data-name="Rectángulo 4380" width="21.302" height="1.587" transform="translate(-732.288 10562.069)" fill="#beb6fc"/>
    </g>
    <rect id="Rectángulo_4381" data-name="Rectángulo 4381" width="291.537" height="375.51" transform="translate(-568.568 10174.656)" fill="#d9d4fc"/>
    <path id="Trazado_4839" data-name="Trazado 4839" d="M-277.031,10408.963v141.2H-568.568v-95.785Z" fill="#beb6fc"/>
    <rect id="Rectángulo_4382" data-name="Rectángulo 4382" width="343.775" height="259.797" transform="translate(-292.901 10190.523) rotate(90)" fill="#fff"/>
    <path id="Trazado_4840" data-name="Trazado 4840" d="M-344.284,10284.957l-18.453-15.227,5.049-6.119,12.221,10.085,25.632-32.252,6.211,4.937Z" fill="#e593a6"/>
    <g id="Grupo_10595" data-name="Grupo 10595">
      <path id="Trazado_4841" data-name="Trazado 4841" d="M-404.118,10264.957h0Z" fill="#fff"/>
      <rect id="Rectángulo_4383" data-name="Rectángulo 4383" width="24.064" height="1.587" transform="translate(-404.118 10264.164)" fill="#3f3577"/>
    </g>
    <g id="Grupo_10596" data-name="Grupo 10596">
      <path id="Trazado_4842" data-name="Trazado 4842" d="M-485.168,10264.957h0Z" fill="#fff"/>
      <rect id="Rectángulo_4384" data-name="Rectángulo 4384" width="72.059" height="1.587" transform="translate(-485.168 10264.164)" fill="#3f3577"/>
    </g>
    <g id="Grupo_10597" data-name="Grupo 10597">
      <path id="Trazado_4843" data-name="Trazado 4843" d="M-437.423,10276.589h0Z" fill="#fff"/>
      <rect id="Rectángulo_4385" data-name="Rectángulo 4385" width="57.369" height="1.587" transform="translate(-437.423 10275.796)" fill="#3f3577"/>
    </g>
    <g id="Grupo_10598" data-name="Grupo 10598">
      <path id="Trazado_4844" data-name="Trazado 4844" d="M-444.312,10276.589h0Z" fill="#fff"/>
      <rect id="Rectángulo_4386" data-name="Rectángulo 4386" width="3.319" height="1.587" transform="translate(-444.312 10275.796)" fill="#3f3577"/>
    </g>
    <g id="Grupo_10599" data-name="Grupo 10599">
      <path id="Trazado_4845" data-name="Trazado 4845" d="M-517.827,10276.589h0Z" fill="#fff"/>
      <rect id="Rectángulo_4387" data-name="Rectángulo 4387" width="65.317" height="1.587" transform="translate(-517.827 10275.796)" fill="#3f3577"/>
    </g>
    <g id="Grupo_10600" data-name="Grupo 10600">
      <path id="Trazado_4846" data-name="Trazado 4846" d="M-517.827,10288.221h0Z" fill="#fff"/>
      <rect id="Rectángulo_4388" data-name="Rectángulo 4388" width="93.347" height="1.587" transform="translate(-517.827 10287.427)" fill="#3f3577"/>
    </g>
    <path id="Trazado_4847" data-name="Trazado 4847" d="M-344.284,10345.739l-18.453-15.227,5.049-6.119,12.221,10.084,25.632-32.251,6.21,4.937Z" fill="#e593a6"/>
    <g id="Grupo_10601" data-name="Grupo 10601">
      <path id="Trazado_4848" data-name="Trazado 4848" d="M-485.168,10325.739h0Z" fill="#fff"/>
      <rect id="Rectángulo_4389" data-name="Rectángulo 4389" width="105.114" height="1.587" transform="translate(-485.168 10324.945)" fill="#3f3577"/>
    </g>
    <g id="Grupo_10602" data-name="Grupo 10602">
      <path id="Trazado_4849" data-name="Trazado 4849" d="M-517.827,10325.739h0Z" fill="#fff"/>
      <rect id="Rectángulo_4390" data-name="Rectángulo 4390" width="24.461" height="1.587" transform="translate(-517.827 10324.945)" fill="#3f3577"/>
    </g>
    <g id="Grupo_10603" data-name="Grupo 10603">
      <path id="Trazado_4850" data-name="Trazado 4850" d="M-517.827,10337.371h0Z" fill="#fff"/>
      <rect id="Rectángulo_4391" data-name="Rectángulo 4391" width="127.328" height="1.587" transform="translate(-517.827 10336.578)" fill="#3f3577"/>
    </g>
    <g id="Grupo_10604" data-name="Grupo 10604">
      <path id="Trazado_4851" data-name="Trazado 4851" d="M-471.536,10349h0Z" fill="#fff"/>
      <rect id="Rectángulo_4392" data-name="Rectángulo 4392" width="2.63" height="1.587" transform="translate(-471.536 10348.21)" fill="#3f3577"/>
    </g>
    <g id="Grupo_10605" data-name="Grupo 10605">
      <path id="Trazado_4852" data-name="Trazado 4852" d="M-517.827,10349h0Z" fill="#fff"/>
      <rect id="Rectángulo_4393" data-name="Rectángulo 4393" width="41.398" height="1.587" transform="translate(-517.827 10348.21)" fill="#3f3577"/>
    </g>
    <path id="Trazado_4853" data-name="Trazado 4853" d="M-344.284,10406.521l-18.453-15.227,5.049-6.118,12.221,10.084,25.632-32.251,6.21,4.937Z" fill="#e593a6"/>
    <g id="Grupo_10610" data-name="Grupo 10610">
      <g id="Grupo_10606" data-name="Grupo 10606">
        <path id="Trazado_4854" data-name="Trazado 4854" d="M-517.827,10386.522h0Z" fill="#fff"/>
        <rect id="Rectángulo_4394" data-name="Rectángulo 4394" width="137.773" height="1.587" transform="translate(-517.827 10385.729)" fill="#3f3577"/>
      </g>
      <g id="Grupo_10607" data-name="Grupo 10607">
        <path id="Trazado_4855" data-name="Trazado 4855" d="M-422.8,10398.154h0Z" fill="#fff"/>
        <rect id="Rectángulo_4395" data-name="Rectángulo 4395" width="42.745" height="1.587" transform="translate(-422.799 10397.36)" fill="#3f3577"/>
      </g>
      <g id="Grupo_10608" data-name="Grupo 10608">
        <path id="Trazado_4856" data-name="Trazado 4856" d="M-517.827,10398.154h0Z" fill="#fff"/>
        <rect id="Rectángulo_4396" data-name="Rectángulo 4396" width="85.15" height="1.587" transform="translate(-517.827 10397.36)" fill="#3f3577"/>
      </g>
      <g id="Grupo_10609" data-name="Grupo 10609">
        <path id="Trazado_4857" data-name="Trazado 4857" d="M-517.827,10409.786h0Z" fill="#fff"/>
        <rect id="Rectángulo_4397" data-name="Rectángulo 4397" width="118.205" height="1.587" transform="translate(-517.827 10408.992)" fill="#3f3577"/>
      </g>
    </g>
    <g id="Grupo_10611" data-name="Grupo 10611">
      <path id="Trazado_4858" data-name="Trazado 4858" d="M-350.041,10288.221h-5.107v-8.5Z" fill="#fff"/>
      <path id="Trazado_4859" data-name="Trazado 4859" d="M-350.041,10289.014h-5.9v-9.3h1.587v7.71h4.314Z" fill="#7060d6"/>
    </g>
    <path id="Trazado_4860" data-name="Trazado 4860" d="M-322.623,10289.014h-23.626v-1.587h22.039v-24.187h1.587Z" fill="#7060d6"/>
    <g id="Grupo_10612" data-name="Grupo 10612">
      <path id="Trazado_4861" data-name="Trazado 4861" d="M-335.909,10256.488h0Z" fill="#fff"/>
      <rect id="Rectángulo_4398" data-name="Rectángulo 4398" width="2.33" height="1.587" transform="translate(-335.909 10255.694)" fill="#7060d6"/>
    </g>
    <g id="Grupo_10613" data-name="Grupo 10613">
      <path id="Trazado_4862" data-name="Trazado 4862" d="M-355.149,10260.069v-3.581h16.413Z" fill="#fff"/>
      <path id="Trazado_4863" data-name="Trazado 4863" d="M-354.356,10260.07h-1.587v-4.376h17.207v1.587h-15.62Z" fill="#7060d6"/>
    </g>
    <path id="Trazado_4864" data-name="Trazado 4864" d="M-341.017,10349.8h-14.925v-4.3h1.587v2.709h13.339Z" fill="#7060d6"/>
    <path id="Trazado_4865" data-name="Trazado 4865" d="M-322.623,10349.8h-15.452v-1.587h13.866V10330.2h1.587Z" fill="#7060d6"/>
    <rect id="Rectángulo_4399" data-name="Rectángulo 4399" width="1.587" height="2.87" transform="translate(-324.21 10323.654)" fill="#7060d6"/>
    <path id="Trazado_4866" data-name="Trazado 4866" d="M-354.356,10342.491h-1.587v-26.015h22.859v1.587h-21.273Z" fill="#7060d6"/>
    <path id="Trazado_4867" data-name="Trazado 4867" d="M-322.623,10410.579h-33.319v-15.367h1.587v13.78h30.146v-5.519h1.587Z" fill="#7060d6"/>
    <rect id="Rectángulo_4400" data-name="Rectángulo 4400" width="1.587" height="2.641" transform="translate(-324.21 10400.833)" fill="#7060d6"/>
    <rect id="Rectángulo_4401" data-name="Rectángulo 4401" width="1.587" height="10.013" transform="translate(-324.21 10387.313)" fill="#7060d6"/>
    <rect id="Rectángulo_4402" data-name="Rectángulo 4402" width="1.587" height="1.98" transform="translate(-324.21 10385.333)" fill="#7060d6"/>
    <rect id="Rectángulo_4403" data-name="Rectángulo 4403" width="2.314" height="1.587" transform="translate(-337.281 10377.26)" fill="#7060d6"/>
    <path id="Trazado_4868" data-name="Trazado 4868" d="M-354.356,10383.609h-1.587v-6.35h15.951v1.587h-14.365Z" fill="#7060d6"/>
    <rect id="Rectángulo_4404" data-name="Rectángulo 4404" width="1.587" height="2.177" transform="translate(-355.942 10460.001)" fill="#7060d6"/>
    <path id="Trazado_4869" data-name="Trazado 4869" d="M-322.623,10471.361h-33.319v-6.143h1.587v4.557h30.146v-3.928h1.587Z" fill="#7060d6"/>
    <rect id="Rectángulo_4405" data-name="Rectángulo 4405" width="1.587" height="17.651" transform="translate(-324.21 10444.526)" fill="#7060d6"/>
    <path id="Trazado_4870" data-name="Trazado 4870" d="M-344.284,10467.3l-18.453-15.227,5.049-6.119,12.221,10.084,25.632-32.252,6.211,4.937Z" fill="#e593a6"/>
    <g id="Grupo_10614" data-name="Grupo 10614">
      <path id="Trazado_4871" data-name="Trazado 4871" d="M-517.827,10447.3h0Z" fill="#fff"/>
      <rect id="Rectángulo_4406" data-name="Rectángulo 4406" width="127.328" height="1.587" transform="translate(-517.827 10446.511)" fill="#3f3577"/>
    </g>
    <g id="Grupo_10615" data-name="Grupo 10615">
      <path id="Trazado_4872" data-name="Trazado 4872" d="M-480.491,10458.936h0Z" fill="#fff"/>
      <rect id="Rectángulo_4407" data-name="Rectángulo 4407" width="100.437" height="1.587" transform="translate(-480.491 10458.143)" fill="#3f3577"/>
    </g>
    <g id="Grupo_10616" data-name="Grupo 10616">
      <path id="Trazado_4873" data-name="Trazado 4873" d="M-490.06,10458.936h0Z" fill="#fff"/>
      <rect id="Rectángulo_4408" data-name="Rectángulo 4408" width="2.719" height="1.587" transform="translate(-490.06 10458.143)" fill="#3f3577"/>
    </g>
    <g id="Grupo_10617" data-name="Grupo 10617">
      <path id="Trazado_4874" data-name="Trazado 4874" d="M-517.827,10458.936h0Z" fill="#fff"/>
      <rect id="Rectángulo_4409" data-name="Rectángulo 4409" width="18.511" height="1.587" transform="translate(-517.827 10458.143)" fill="#3f3577"/>
    </g>
    <g id="Grupo_10618" data-name="Grupo 10618">
      <path id="Trazado_4875" data-name="Trazado 4875" d="M-517.827,10470.568h0Z" fill="#fff"/>
      <rect id="Rectángulo_4410" data-name="Rectángulo 4410" width="48.922" height="1.587" transform="translate(-517.827 10469.775)" fill="#3f3577"/>
    </g>
    <rect id="Rectángulo_4411" data-name="Rectángulo 4411" width="259.797" height="1.587" transform="translate(-552.698 10533.506)" fill="#3f3577"/>
    <path id="Trazado_4876" data-name="Trazado 4876" d="M-494.194,10174.656v39.666h142.8v-39.666h-43.839l-11.273-24.314h-32.566l-11.273,24.314Z" fill="#beb6fc"/>
    <path id="Trazado_4877" data-name="Trazado 4877" d="M-494.194,10174.656v28.917l142.8-22.244v-6.673h-43.839l-11.273-24.314h-32.566l-11.273,24.314Z" fill="#a094ee"/>
    <rect id="Rectángulo_4412" data-name="Rectángulo 4412" width="518.648" height="1.587" transform="translate(-783.642 10550.165)" fill="#beb6fc"/>
    <rect id="Rectángulo_4413" data-name="Rectángulo 4413" width="73.461" height="1.587" transform="translate(-725.73 10550.165)" fill="#3f3577"/>
    <rect id="Rectángulo_4414" data-name="Rectángulo 4414" width="7.453" height="1.587" transform="translate(-397.953 10550.165)" fill="#3f3577"/>
    <rect id="Rectángulo_4415" data-name="Rectángulo 4415" width="227.145" height="1.587" transform="translate(-634.352 10550.165)" fill="#3f3577"/>
    <rect id="Rectángulo_4416" data-name="Rectángulo 4416" width="108.949" height="1.587" transform="translate(-364.77 10550.165)" fill="#3f3577"/>
    <rect id="Rectángulo_4417" data-name="Rectángulo 4417" width="5.752" height="1.587" transform="translate(-742.985 10550.165)" fill="#3f3577"/>
    <rect id="Rectángulo_4418" data-name="Rectángulo 4418" width="11.445" height="1.587" transform="translate(-317.334 10550.165)" fill="#3f3577"/>
    <rect id="Rectángulo_4419" data-name="Rectángulo 4419" width="1.587" height="37.154" transform="translate(-277.824 10501.384)" fill="#7060d6"/>
    <rect id="Rectángulo_4420" data-name="Rectángulo 4420" width="1.587" height="154.263" transform="translate(-277.824 10330.199)" fill="#7060d6"/>
    <rect id="Rectángulo_4421" data-name="Rectángulo 4421" width="1.587" height="47.466" transform="translate(-569.361 10436.068)" fill="#7060d6"/>
    <rect id="Rectángulo_4422" data-name="Rectángulo 4422" width="1.587" height="3.243" transform="translate(-569.361 10425.29)" fill="#7060d6"/>
    <rect id="Rectángulo_4423" data-name="Rectángulo 4423" width="1.587" height="38.206" transform="translate(-569.361 10383.184)" fill="#7060d6"/>
    <path id="Trazado_4878" data-name="Trazado 4878" d="M-350.6,10215.116h-75.8v-1.587h74.21v-38.873h1.587Z" fill="#7060d6"/>
    <rect id="Rectángulo_4424" data-name="Rectángulo 4424" width="46.299" height="1.587" transform="translate(-481.324 10213.529)" fill="#7060d6"/>
    <path id="Trazado_4879" data-name="Trazado 4879" d="M-276.238,10236h-1.587v-60.547h-22.968v-1.587h24.555Z" fill="#a094ee"/>
    <rect id="Rectángulo_4425" data-name="Rectángulo 4425" width="11.374" height="1.587" transform="translate(-319.036 10173.863)" fill="#a094ee"/>
    <circle id="Elipse_98" data-name="Elipse 98" cx="6.776" cy="6.776" r="6.776" transform="translate(-430.569 10170.355) rotate(-80.782)" fill="#fff"/>
    <path id="Trazado_4880" data-name="Trazado 4880" d="M-415.579,10167.042l-1.512-.479a6.024,6.024,0,0,0,.278-1.811,5.99,5.99,0,0,0-5.982-5.983,5.949,5.949,0,0,0-5.37,3.343l-1.423-.7a7.524,7.524,0,0,1,6.793-4.227,7.578,7.578,0,0,1,7.569,7.569A7.573,7.573,0,0,1-415.579,10167.042Z" fill="#7060d6"/>
    <path id="Trazado_4881" data-name="Trazado 4881" d="M-422.8,10172.322a7.578,7.578,0,0,1-7.569-7.569l0-.218,1.587.042,0,.176a5.99,5.99,0,0,0,5.983,5.982,5.989,5.989,0,0,0,1.83-.285l.486,1.511A7.572,7.572,0,0,1-422.8,10172.322Z" fill="#7060d6"/>
    <path id="Trazado_4882" data-name="Trazado 4882" d="M-354.356,10450.348h-1.587v-12.306h19.818v1.587h-18.232Z" fill="#7060d6"/>
    <rect id="Rectángulo_4426" data-name="Rectángulo 4426" width="1.587" height="41.07" transform="translate(-494.987 10174.656)" fill="#fff"/>
    <g id="Grupo_10622" data-name="Grupo 10622">
      <path id="Trazado_4883" data-name="Trazado 4883" d="M-597.61,10242.287l8.744-1.5,11.019,45.9-14.745,2.536Z" fill="#ffc7bd"/>
      <g id="Grupo_10619" data-name="Grupo 10619">
        <rect id="Rectángulo_4427" data-name="Rectángulo 4427" width="216.837" height="11.879" transform="matrix(0.969, -0.247, 0.247, 0.969, -740.422, 10302.358)" fill="#e79b4d"/>
        <rect id="Rectángulo_4428" data-name="Rectángulo 4428" width="216.837" height="11.878" transform="translate(-743.351 10290.847) rotate(-14.272)" fill="#eec161"/>
        <rect id="Rectángulo_4429" data-name="Rectángulo 4429" width="216.837" height="11.879" transform="translate(-746.279 10279.335) rotate(-14.272)" fill="#eec161"/>
        <rect id="Rectángulo_4430" data-name="Rectángulo 4430" width="17.818" height="35.635" transform="translate(-780.815 10288.12) rotate(-14.272)" fill="#e27f9b"/>
        <rect id="Rectángulo_4431" data-name="Rectángulo 4431" width="17.818" height="35.636" transform="translate(-763.547 10283.728) rotate(-14.272)" fill="#ece9fd"/>
        <path id="Trazado_4884" data-name="Trazado 4884" d="M-477.983,10229.472l-58.151-3.593,8.785,34.536Z" fill="#ece9fd"/>
        <path id="Trazado_4885" data-name="Trazado 4885" d="M-495.445,10240.419l-31.905,20-2.924-11.513,33.793-12.557Z" fill="#d9d4fc"/>
        <path id="Trazado_4886" data-name="Trazado 4886" d="M-477.981,10229.471l-17.464,10.948-1.036-4.071Z" fill="#c96597"/>
        <path id="Trazado_4887" data-name="Trazado 4887" d="M-477.981,10229.471l-18.5,6.877-2.072-8.15Z" fill="#e27f9b"/>
        <rect id="Rectángulo_4432" data-name="Rectángulo 4432" width="17.818" height="11.878" transform="matrix(0.969, -0.247, 0.247, 0.969, -757.69, 10306.752)" fill="#d9d4fc"/>
        <rect id="Rectángulo_4433" data-name="Rectángulo 4433" width="17.818" height="11.878" transform="translate(-774.958 10311.144) rotate(-14.272)" fill="#c96597"/>
        <rect id="Rectángulo_4434" data-name="Rectángulo 4434" width="169.87" height="1.586" transform="matrix(0.969, -0.247, 0.247, 0.969, -702.17, 10303.933)" fill="#3f3577"/>
        <rect id="Rectángulo_4435" data-name="Rectángulo 4435" width="34.542" height="1.586" transform="matrix(0.969, -0.247, 0.247, 0.969, -744.94, 10314.95)" fill="#7060d6"/>
        <path id="Trazado_4888" data-name="Trazado 4888" d="M-772.6,10323.62l-6.1-23.988,1.538-.391,5.71,22.45,23.577-6,.391,1.537Z" fill="#7060d6"/>
        <path id="Trazado_4889" data-name="Trazado 4889" d="M-779.952,10294.73l-1.827-7.184,18.037-4.588.391,1.537-16.5,4.2,1.437,5.646Z" fill="#7060d6"/>
        <rect id="Rectángulo_4436" data-name="Rectángulo 4436" width="1.587" height="30.739" transform="translate(-747.048 10279.531) rotate(-14.272)" fill="#fff"/>
        <rect id="Rectángulo_4437" data-name="Rectángulo 4437" width="1.587" height="3.379" transform="translate(-759.292 10303.672) rotate(-14.271)" fill="#fff"/>
        <rect id="Rectángulo_4438" data-name="Rectángulo 4438" width="1.587" height="9.163" transform="matrix(0.969, -0.247, 0.247, 0.969, -762.298, 10291.855)" fill="#fff"/>
        <rect id="Rectángulo_4439" data-name="Rectángulo 4439" width="1.587" height="23.76" transform="translate(-536.903 10226.074) rotate(-14.277)" fill="#fff"/>
      </g>
      <path id="Trazado_4890" data-name="Trazado 4890" d="M-630.673,10238.66l-4.084-13.093Z" fill="none"/>
      <path id="Trazado_4891" data-name="Trazado 4891" d="M-684.209,10326.681c2.486-3.358,4.971-6.638,5.062-11.563.225-12.142-5.179-12.71-4.467-24.841s9.709-11.487,10.421-23.619a15.008,15.008,0,0,0-.3-4.177,30.723,30.723,0,0,1-2.3-5.079c-.111-.309-.214-.625-.307-.934a31.121,31.121,0,0,1-1.419-9.937,31.243,31.243,0,0,1,31.814-30.655,31.246,31.246,0,0,1,30.663,31.815,31.108,31.108,0,0,1-1.787,9.877c-.105.3-.218.6-.332.9l-.009.011a31.031,31.031,0,0,1-2.5,5.016,15.261,15.261,0,0,0-.446,4.146c.261,12.149,9.267,11.84,9.528,23.988s-5.161,12.519-5.386,24.658c-.091,4.927,2.27,8.295,4.638,11.745,2.351,3.458,4.708,7,4.611,12.239a27.225,27.225,0,0,1-27.732,26.721l-28.1-.521a27.219,27.219,0,0,1-26.712-27.731C-689.173,10333.5-686.686,10330.05-684.209,10326.681Z" fill="#3f3577"/>
      <circle id="Elipse_99" data-name="Elipse 99" cx="18.445" cy="18.445" r="18.445" transform="matrix(0.658, -0.753, 0.753, 0.658, -661.369, 10354.351)" fill="#ffc7bd"/>
      <circle id="Elipse_100" data-name="Elipse 100" cx="10.313" cy="10.313" r="10.313" transform="matrix(0.658, -0.753, 0.753, 0.658, -642.978, 10294.823)" fill="#e593a6"/>
      <path id="Trazado_4892" data-name="Trazado 4892" d="M-586.885,10281.144a7.5,7.5,0,0,1,9.037,5.538,7.494,7.494,0,0,1-5.538,9.036,7.494,7.494,0,0,1-9.036-5.537A7.5,7.5,0,0,1-586.885,10281.144Z" fill="#ffc7bd"/>
      <path id="Trazado_4893" data-name="Trazado 4893" d="M-629.031,10283.552l43.457-2.6,1.847,14.843-42.762,8.186Z" fill="#ffc7bd"/>
      <circle id="Elipse_101" data-name="Elipse 101" cx="5.157" cy="5.157" r="5.157" transform="translate(-693.071 10537.868)" fill="#e593a6"/>
      <circle id="Elipse_102" data-name="Elipse 102" cx="5.157" cy="5.157" r="5.157" transform="translate(-634.352 10537.868)" fill="#8b77e8"/>
      <path id="Trazado_4894" data-name="Trazado 4894" d="M-618.121,10293.64l1.184,57.74-36.808,2.461L-673,10294.407a6.345,6.345,0,0,1,5.614-8.288l38.264-2.559A10.313,10.313,0,0,1-618.121,10293.64Z" fill="#ffc7bd"/>
      <circle id="Elipse_103" data-name="Elipse 103" cx="10.313" cy="10.313" r="10.313" transform="translate(-640.755 10286.054) rotate(-12.696)" fill="#ffc7bd"/>
      <path id="Trazado_4895" data-name="Trazado 4895" d="M-616.9,10352.623h-36.891l-1.988,1.545a27.469,27.469,0,0,0-10.616,21.691v7.934a11.108,11.108,0,0,0,11.107,11.107h32.038a11.108,11.108,0,0,0,11.107-11.107v-10.865A45.724,45.724,0,0,0-616.9,10352.623Z" fill="#8b77e8"/>
      <path id="Trazado_4896" data-name="Trazado 4896" d="M-609.072,10313.006a10.279,10.279,0,0,0-.917-3.592l.011,0-9.064-19.843-18.768,8.568,9.064,19.843.011,0a10.308,10.308,0,0,0,10.061,6.012A10.314,10.314,0,0,0-609.072,10313.006Z" fill="#ffc7bd"/>
      <rect id="Rectángulo_4440" data-name="Rectángulo 4440" width="1.586" height="3.26" transform="translate(-617.658 10294.504) rotate(-24.552)" fill="#ff95a9"/>
      <path id="Trazado_4897" data-name="Trazado 4897" d="M-619.382,10324.8a10.917,10.917,0,0,1-4.362-.9l.629-1.456a9.414,9.414,0,0,0,4.388.75,9.532,9.532,0,0,0,8.864-10.135,9.486,9.486,0,0,0-.847-3.314l-.337-.738.01,0-3.981-8.716,1.443-.659,4.656,10.193-.037.017a10.955,10.955,0,0,1,.676,3.117,11.121,11.121,0,0,1-10.341,11.824Q-619,10324.8-619.382,10324.8Z" fill="#ff95a9"/>
      <path id="Trazado_4898" data-name="Trazado 4898" d="M-674.94,10302.128a10.313,10.313,0,0,0,14.308,2.827,10.313,10.313,0,0,0,2.826-14.309,10.312,10.312,0,0,0-14.308-2.826A10.312,10.312,0,0,0-674.94,10302.128Z" fill="#ffc7bd"/>
      <path id="Trazado_4899" data-name="Trazado 4899" d="M-673.182,10288.64l-32.738,28.7,9.119,11.855,36.169-24.236Z" fill="#ffc7bd"/>
      <circle id="Elipse_104" data-name="Elipse 104" cx="11.106" cy="11.106" r="11.106" transform="translate(-634.352 10372.685)" fill="#8b77e8"/>
      <circle id="Elipse_105" data-name="Elipse 105" cx="11.106" cy="11.106" r="11.106" transform="translate(-666.39 10372.685)" fill="#8b77e8"/>
      <circle id="Elipse_106" data-name="Elipse 106" cx="8.972" cy="8.972" r="8.972" transform="translate(-634.352 10432.248)" fill="#8b77e8"/>
      <g id="Grupo_10620" data-name="Grupo 10620">
        <path id="Trazado_4900" data-name="Trazado 4900" d="M-634.351,10383.791v57.429l17.92.676,4.263-57.269Z" fill="#e593a6"/>
      </g>
      <g id="Grupo_10621" data-name="Grupo 10621">
        <rect id="Rectángulo_4441" data-name="Rectángulo 4441" width="17.453" height="21.491" transform="translate(-633.679 10283.282) rotate(172.349)" fill="#e593a6"/>
        <path id="Trazado_4901" data-name="Trazado 4901" d="M-650.977,10285.606a8.727,8.727,0,0,0,9.811,7.486,8.727,8.727,0,0,0,7.487-9.811,8.727,8.727,0,0,0-9.811-7.487A8.728,8.728,0,0,0-650.977,10285.606Z" fill="#e593a6"/>
      </g>
      <path id="Trazado_4902" data-name="Trazado 4902" d="M-655.641,10257l3.932-.528-1.056-7.862-3.932.527a3.967,3.967,0,0,0-3.4,4.46h0A3.967,3.967,0,0,0-655.641,10257Z" fill="#e593a6"/>
      <path id="Trazado_4903" data-name="Trazado 4903" d="M-628.37,10230.118l-29.548,3.969,5.123,38.142,18.351-2.465a12.857,12.857,0,0,0,10.9-15.237Z" fill="#e593a6"/>
      <path id="Trazado_4904" data-name="Trazado 4904" d="M-655.91,10249.035l-.787.1-3.05-22.71,23.4-3.144a11.292,11.292,0,0,1,12.7,9.688l.059.445-.787.105a31.042,31.042,0,0,0-17.712,8.712h0a24.225,24.225,0,0,1-13.822,6.8Z" fill="#3f3577"/>
      <path id="Trazado_4905" data-name="Trazado 4905" d="M-629.8,10302l-1.224-18.312-27.919,1.866Z" fill="#e593a6"/>
      <path id="Trazado_4906" data-name="Trazado 4906" d="M-616.433,10441.9l-7.621,101.515-10.3-.391V10441.22Z" fill="#e593a6"/>
      <path id="Trazado_4907" data-name="Trazado 4907" d="M-661.988,10364.848a3.966,3.966,0,0,1-3.823,4.1,3.966,3.966,0,0,1-4.105-3.824,3.967,3.967,0,0,1,3.824-4.1A3.966,3.966,0,0,1-661.988,10364.848Z" fill="#e593a6"/>
      <path id="Trazado_4908" data-name="Trazado 4908" d="M-656.185,10371.787a5.561,5.561,0,0,1-1.811-.241v.006l-9.108-2.768,1.013-7.76,9.514-.338a5.554,5.554,0,0,1,5.746,5.354A5.554,5.554,0,0,1-656.185,10371.787Z" fill="#e593a6"/>
      <path id="Trazado_4909" data-name="Trazado 4909" d="M-696.556,10329.02a7.493,7.493,0,0,0,1.638-10.47,7.494,7.494,0,0,0-10.471-1.638,7.493,7.493,0,0,0-1.637,10.471A7.493,7.493,0,0,0-696.556,10329.02Z" fill="#ffc7bd"/>
      <path id="Trazado_4910" data-name="Trazado 4910" d="M-706.4,10328.133l37.576,39.59,6.078-5.072-32.171-44.1Z" fill="#e593a6"/>
      <path id="Trazado_4911" data-name="Trazado 4911" d="M-673.911,10362.367l6.811-5.686-27.818-38.135-11.487,9.587Z" fill="#ffc7bd"/>
      <path id="Trazado_4912" data-name="Trazado 4912" d="M-666.237,10381.947-693,10542.169l10.1,2.08,38.413-157.822Z" fill="#e593a6"/>
      <path id="Trazado_4913" data-name="Trazado 4913" d="M-693.071,10543.025h10.313v7.14h-14.449a2.211,2.211,0,0,1-2.212-2.211h0a2.21,2.21,0,0,1,1.109-1.917Z" fill="#3f3577"/>
      <path id="Trazado_4914" data-name="Trazado 4914" d="M-629.265,10257.833a4.364,4.364,0,0,1-3.641,4.983,4.365,4.365,0,0,1-4.982-3.642Z" fill="#fff"/>
      <rect id="Rectángulo_4442" data-name="Rectángulo 4442" width="4.648" height="1.587" transform="matrix(0.165, -0.986, 0.986, 0.165, -693.065, 10537.737)" fill="#624ac9"/>
      <rect id="Rectángulo_4443" data-name="Rectángulo 4443" width="1.587" height="5.13" transform="translate(-635.145 10418.021)" fill="#624ac9"/>
      <rect id="Rectángulo_4444" data-name="Rectángulo 4444" width="3.396" height="1.587" transform="translate(-687.194 10321.798) rotate(-33.815)" fill="#ff95a9"/>
      <rect id="Rectángulo_4445" data-name="Rectángulo 4445" width="21.319" height="1.587" transform="translate(-681.761 10318.155) rotate(-33.812)" fill="#ff95a9"/>
      <rect id="Rectángulo_4446" data-name="Rectángulo 4446" width="31.276" height="1.586" transform="translate(-621.977 10282.336) rotate(-3.432)" fill="#ff95a9"/>
      <rect id="Rectángulo_4447" data-name="Rectángulo 4447" width="32.059" height="1.586" transform="matrix(0.969, -0.247, 0.247, 0.969, -613.162, 10244.657)" fill="#7060d6"/>
      <path id="Trazado_4915" data-name="Trazado 4915" d="M-599.547,10240.338a3.967,3.967,0,0,1,1.74-5.333,3.966,3.966,0,0,1,5.333,1.739,3.967,3.967,0,0,1-1.74,5.333A3.966,3.966,0,0,1-599.547,10240.338Z" fill="#e593a6"/>
      <path id="Trazado_4916" data-name="Trazado 4916" d="M-607.732,10236.487a5.529,5.529,0,0,1,1.744-.544l0,0,9.427-1.326,2.349,7.465-8.487,4.312a5.552,5.552,0,0,1-7.466-2.435A5.554,5.554,0,0,1-607.732,10236.487Z" fill="#e593a6"/>
      <path id="Trazado_4917" data-name="Trazado 4917" d="M-675.237,10435.826h59.257l3.811-51.2-54.068-2.68Z" fill="#8b77e8"/>
      <rect id="Rectángulo_4448" data-name="Rectángulo 4448" width="145.054" height="1.587" transform="translate(-691.852 10530.343) rotate(-80.5)" fill="#624ac9"/>
      <rect id="Rectángulo_4449" data-name="Rectángulo 4449" width="1.587" height="93.138" transform="translate(-635.145 10444.73)" fill="#624ac9"/>
      <path id="Trazado_4918" data-name="Trazado 4918" d="M-624.039,10543.025h-10.313v7.14H-619.9a2.211,2.211,0,0,0,2.211-2.211h0a2.21,2.21,0,0,0-1.109-1.917Z" fill="#3f3577"/>
    </g>
  </g>
</svg>
