<svg xmlns="http://www.w3.org/2000/svg" viewBox="0 0 323.3 313.19"><defs><style>.cls-1{fill:#f49e21;}.cls-2{isolation:isolate;}.cls-3{fill:#fff;}.cls-4{fill:none;stroke:#eb7f8f;stroke-miterlimit:10;stroke-width:8px;}.cls-5{fill:#eb7f8f;}</style></defs><g id="Capa_2" data-name="Capa 2"><g id="CONTENIDO"><path class="cls-1" d="M188.1,148.72c-5.91-1.11-11.47-2.18-17-3.21-3.67-.67-3.67-.65-4.23-4.23-.63-4-1.17-8.05-1.94-12-.38-2,.09-3.05,1.91-4,5-2.59,10-5.31,14.93-8.12a4.72,4.72,0,0,0,2-2.56c1.06-3.61,2-7.28,2.77-11a4.35,4.35,0,0,0-.53-3c-3.23-4.82-6.57-9.57-9.95-14.29a2.79,2.79,0,0,1,0-3.87c2.83-3.68,5.53-7.47,8.2-11.27A2.72,2.72,0,0,1,187.76,70c5.55,1.72,11.12,3.38,16.72,4.93a4.34,4.34,0,0,0,3-.37c3.35-1.89,6.64-3.91,9.85-6a4,4,0,0,0,1.57-2.32q1.74-8.43,3.2-16.91c.32-1.85,1.08-2.74,3-3,4.54-.57,9-1.32,13.55-2.12A2.69,2.69,0,0,1,242,45.85q4.07,7.71,8.34,15.31A4.42,4.42,0,0,0,252.68,63c3.64,1,7.36,1.72,11,2.71a3.66,3.66,0,0,0,3.39-.72c4.64-3.24,9.36-6.38,14-9.64,1.38-1,2.44-1.1,3.87,0,3.68,2.84,7.46,5.54,11.27,8.21a2.73,2.73,0,0,1,1.22,3.5c-1.7,5.48-3.36,11-4.86,16.52A5,5,0,0,0,293,87c1.82,3.3,3.82,6.51,5.9,9.67a4.07,4.07,0,0,0,2.32,1.56c5.61,1.15,11.25,2.23,16.9,3.2,1.86.31,2.75,1.08,3,3,.58,4.54,1.33,9,2.13,13.56a2.69,2.69,0,0,1-1.64,3.31q-7.71,4.07-15.31,8.34a4.42,4.42,0,0,0-1.88,2.37c-1,3.64-1.7,7.36-2.7,11a4,4,0,0,0,.78,3.6c3.18,4.6,6.32,9.23,9.56,13.79,1,1.37,1.11,2.43,0,3.87-2.83,3.68-5.53,7.46-8.21,11.26a2.73,2.73,0,0,1-3.5,1.24c-5.48-1.71-11-3.36-16.51-4.87a5,5,0,0,0-3.41.41c-3.3,1.82-6.52,3.82-9.67,5.9a4,4,0,0,0-1.57,2.31q-1.74,8.43-3.2,16.91c-.32,1.85-1.06,2.75-3,3-4.53.57-9.05,1.32-13.55,2.13a2.69,2.69,0,0,1-3.31-1.63q-4.07-7.71-8.33-15.32a4.08,4.08,0,0,0-2.16-1.82q-5.79-1.58-11.66-2.78a3.72,3.72,0,0,0-2.55.53c-4.78,3.17-9.53,6.39-14.21,9.71-1.52,1.08-2.66,1.24-4.24,0-3.6-2.82-7.33-5.47-11.08-8.08-1.46-1-1.68-2.09-1.17-3.71,1.73-5.55,3.36-11.13,4.95-16.72a3.46,3.46,0,0,0-.19-2.42c-2.07-3.59-4.27-7.1-6.44-10.62A6.93,6.93,0,0,0,188.1,148.72Z"/><g class="cls-2"><path class="cls-3" d="M222.58,115.23V103.81h2.61v9.42h5v2Z"/><path class="cls-3" d="M232,105.54v-.21a24.52,24.52,0,0,0,2-2.35h2.88v.16c-.29.27-.79.67-1.49,1.21s-1.26.93-1.66,1.19Zm2.7,9.69h-2.58V106.5h2.58Z"/><path class="cls-3" d="M240.39,115.39a3.14,3.14,0,0,1-2.61-1.2,6.26,6.26,0,0,1,0-6.66,3.24,3.24,0,0,1,2.66-1.19,3.13,3.13,0,0,1,2.71,1.28h.09a9,9,0,0,1-.2-1.75v-2.79h2.58v12.15h-2l-.5-1.13h-.11A3,3,0,0,1,240.39,115.39Zm.9-1.9a1.84,1.84,0,0,0,1.45-.53,2.91,2.91,0,0,0,.5-1.8v-.26a3.39,3.39,0,0,0-.47-2,1.81,1.81,0,0,0-1.52-.61,1.56,1.56,0,0,0-1.34.68,3.44,3.44,0,0,0-.47,2,3.24,3.24,0,0,0,.48,1.94A1.61,1.61,0,0,0,241.29,113.49Z"/><path class="cls-3" d="M252.6,115.39a5.14,5.14,0,0,1-3.56-1.16,4.26,4.26,0,0,1-1.28-3.3,4.65,4.65,0,0,1,1.19-3.4,5.12,5.12,0,0,1,6.39-.14,3.81,3.81,0,0,1,1.11,2.91v1.16h-6.08a2.19,2.19,0,0,0,.65,1.59,2.38,2.38,0,0,0,1.7.57,7.5,7.5,0,0,0,1.61-.17,8.4,8.4,0,0,0,1.59-.52v1.84a6.16,6.16,0,0,1-1.45.47A9.88,9.88,0,0,1,252.6,115.39Zm-.36-7.36a1.69,1.69,0,0,0-1.28.48,2.11,2.11,0,0,0-.53,1.36H254a2,2,0,0,0-.5-1.36A1.75,1.75,0,0,0,252.24,108Z"/><path class="cls-3" d="M263.8,106.34a4.24,4.24,0,0,1,.87.07l-.19,2.23a3.28,3.28,0,0,0-.76-.08,2.88,2.88,0,0,0-1.92.59,2,2,0,0,0-.69,1.64v4.44h-2.57V106.5h1.95l.38,1.47H261a3.48,3.48,0,0,1,1.19-1.19A3.18,3.18,0,0,1,263.8,106.34Z"/><path class="cls-3" d="M196.65,137.39a5.15,5.15,0,0,1-3.56-1.16,4.26,4.26,0,0,1-1.28-3.3,4.65,4.65,0,0,1,1.19-3.4,5.12,5.12,0,0,1,6.39-.14,3.81,3.81,0,0,1,1.11,2.91v1.16h-6.08a2.19,2.19,0,0,0,.65,1.59,2.38,2.38,0,0,0,1.7.57,7.5,7.5,0,0,0,1.61-.17,8.4,8.4,0,0,0,1.59-.52v1.84a6.23,6.23,0,0,1-1.44.47A10.07,10.07,0,0,1,196.65,137.39Zm-.36-7.36a1.7,1.7,0,0,0-1.28.48,2.11,2.11,0,0,0-.53,1.36h3.61a1.9,1.9,0,0,0-.5-1.36A1.75,1.75,0,0,0,196.29,130Z"/><path class="cls-3" d="M211,137.23h-2.57v-5.1a2.42,2.42,0,0,0-.34-1.42,1.25,1.25,0,0,0-1.07-.47,1.62,1.62,0,0,0-1.44.67,4.13,4.13,0,0,0-.45,2.21v4.11h-2.57V128.5h2l.34,1.12h.15a2.46,2.46,0,0,1,1.09-.94,3.77,3.77,0,0,1,1.65-.34,3,3,0,0,1,2.86,1.28h.23a2.56,2.56,0,0,1,1.12-1,4,4,0,0,1,1.67-.33,3.44,3.44,0,0,1,2.42.76,3.17,3.17,0,0,1,.82,2.44v5.69h-2.58v-5.1a2.42,2.42,0,0,0-.34-1.42,1.25,1.25,0,0,0-1.07-.47,1.66,1.66,0,0,0-1.42.63,3.31,3.31,0,0,0-.47,2Z"/><path class="cls-3" d="M224.73,137.39a3.19,3.19,0,0,1-2.6-1.12H222c.09.73.14,1.15.14,1.27v3.54h-2.58V128.5h2.09l.37,1.13h.12a3,3,0,0,1,2.67-1.29,3.13,3.13,0,0,1,2.61,1.19,5.23,5.23,0,0,1,1,3.32,6.24,6.24,0,0,1-.44,2.43,3.45,3.45,0,0,1-1.27,1.57A3.38,3.38,0,0,1,224.73,137.39Zm-.76-7.15a1.69,1.69,0,0,0-1.39.54,3,3,0,0,0-.45,1.8v.26a3.47,3.47,0,0,0,.45,2,1.64,1.64,0,0,0,1.43.61c1.15,0,1.73-.88,1.73-2.64a3.56,3.56,0,0,0-.43-1.93A1.49,1.49,0,0,0,224,130.24Z"/><path class="cls-3" d="M235.75,128.34a4.37,4.37,0,0,1,.87.07l-.2,2.23a3.28,3.28,0,0,0-.76-.08,2.88,2.88,0,0,0-1.92.59,2.06,2.06,0,0,0-.68,1.64v4.44h-2.58V128.5h2l.38,1.47h.13a3.45,3.45,0,0,1,1.18-1.19A3.19,3.19,0,0,1,235.75,128.34Z"/><path class="cls-3" d="M242.59,137.39a5.11,5.11,0,0,1-3.55-1.16,4.23,4.23,0,0,1-1.29-3.3,4.65,4.65,0,0,1,1.19-3.4,4.43,4.43,0,0,1,3.28-1.19,4.35,4.35,0,0,1,3.11,1,3.81,3.81,0,0,1,1.11,2.91v1.16h-6.08a2.19,2.19,0,0,0,.65,1.59,2.38,2.38,0,0,0,1.7.57,7.5,7.5,0,0,0,1.61-.17,8.4,8.4,0,0,0,1.59-.52v1.84a6.23,6.23,0,0,1-1.44.47A10,10,0,0,1,242.59,137.39Zm-.36-7.36a1.7,1.7,0,0,0-1.28.48,2.11,2.11,0,0,0-.53,1.36H244a1.9,1.9,0,0,0-.5-1.36A1.75,1.75,0,0,0,242.23,130Z"/><path class="cls-3" d="M255.11,134.64a2.32,2.32,0,0,1-1,2.05,5.25,5.25,0,0,1-3,.7,9.89,9.89,0,0,1-1.76-.13,6.39,6.39,0,0,1-1.35-.38v-2a8.94,8.94,0,0,0,1.61.53,7.09,7.09,0,0,0,1.58.21c.94,0,1.4-.25,1.4-.75a.62.62,0,0,0-.18-.46,2.87,2.87,0,0,0-.64-.4c-.31-.15-.71-.32-1.22-.52a7.93,7.93,0,0,1-1.6-.78,2.28,2.28,0,0,1-.74-.82,2.62,2.62,0,0,1-.23-1.15,2,2,0,0,1,1-1.8,5.09,5.09,0,0,1,2.77-.63A8.31,8.31,0,0,1,255,129l-.78,1.72c-.47-.19-.91-.34-1.32-.46a4.46,4.46,0,0,0-1.26-.18q-1.14,0-1.14.57a.68.68,0,0,0,.37.56,11.76,11.76,0,0,0,1.61.69,8.9,8.9,0,0,1,1.62.77,2.17,2.17,0,0,1,1,1.95Z"/><path class="cls-3" d="M263.11,137.23l-.5-1.18h-.07a3.89,3.89,0,0,1-1.33,1,4.77,4.77,0,0,1-1.8.29,3.06,3.06,0,0,1-2.14-.72,2.64,2.64,0,0,1-.77-2,2.24,2.24,0,0,1,1.05-2.05,6.47,6.47,0,0,1,3.16-.73l1.64,0v-.39q0-1.32-1.47-1.32a7.19,7.19,0,0,0-2.66.63l-.85-1.61a8.13,8.13,0,0,1,3.61-.79,4.74,4.74,0,0,1,2.91.77,2.7,2.7,0,0,1,1,2.32v5.82Zm-.76-4-1,0a3.38,3.38,0,0,0-1.67.37,1.17,1.17,0,0,0-.55,1c0,.67.42,1,1.25,1a2,2,0,0,0,1.43-.48,1.61,1.61,0,0,0,.54-1.26Z"/><path class="cls-3" d="M272.81,128.34a4.24,4.24,0,0,1,.87.07l-.19,2.23a3.28,3.28,0,0,0-.76-.08,2.88,2.88,0,0,0-1.92.59,2,2,0,0,0-.69,1.64v4.44h-2.57V128.5h1.95l.38,1.47H270a3.36,3.36,0,0,1,1.18-1.19A3.18,3.18,0,0,1,272.81,128.34Z"/><path class="cls-3" d="M275.29,126.24c0-.77.46-1.16,1.4-1.16s1.4.39,1.4,1.16a1.09,1.09,0,0,1-.35.86,1.55,1.55,0,0,1-1.05.31C275.75,127.41,275.29,127,275.29,126.24Zm2.68,11H275.4V128.5H278Z"/><path class="cls-3" d="M286.66,137.23l-.5-1.18h-.07a3.82,3.82,0,0,1-1.34,1,4.68,4.68,0,0,1-1.79.29,3,3,0,0,1-2.14-.72,2.65,2.65,0,0,1-.78-2,2.26,2.26,0,0,1,1-2.05,6.52,6.52,0,0,1,3.17-.73l1.64,0v-.39q0-1.32-1.47-1.32a7.14,7.14,0,0,0-2.66.63l-.85-1.61a8.1,8.1,0,0,1,3.61-.79,4.76,4.76,0,0,1,2.91.77,2.73,2.73,0,0,1,1,2.32v5.82Zm-.76-4-1,0a3.38,3.38,0,0,0-1.67.37,1.17,1.17,0,0,0-.55,1c0,.67.42,1,1.25,1a2.06,2.06,0,0,0,1.43-.48,1.61,1.61,0,0,0,.54-1.26Z"/><path class="cls-3" d="M293.67,137.23H291.1V125.08h2.57Z"/></g><path class="cls-1" d="M57.34,142.49c-5.82,1.55-11.29,3-16.76,4.46-3.6,1-3.59,1-5.64-2-2.3-3.35-4.53-6.76-6.95-10-1.18-1.61-1.23-2.8,0-4.43q5.14-6.76,10-13.77a4.75,4.75,0,0,0,.67-3.15q-.9-5.59-2.24-11.1A4.28,4.28,0,0,0,34.63,100c-5-3-10.05-5.8-15.13-8.6a2.78,2.78,0,0,1-1.63-3.51c1-4.54,1.76-9.12,2.53-13.7a2.74,2.74,0,0,1,2.67-2.59c5.75-.84,11.49-1.74,17.21-2.76a4.32,4.32,0,0,0,2.53-1.62c2.21-3.15,4.3-6.39,6.29-9.69a4,4,0,0,0,.41-2.77q-2.07-8.34-4.41-16.63c-.51-1.81-.21-2.94,1.45-4,3.84-2.48,7.59-5.1,11.31-7.77a2.7,2.7,0,0,1,3.69.05q7,5.2,14.13,10.22a4.34,4.34,0,0,0,2.95.67c3.71-.66,7.38-1.62,11.09-2.3a3.66,3.66,0,0,0,2.75-2.11c2.79-4.93,5.69-9.79,8.47-14.73.82-1.47,1.72-2.05,3.49-1.67,4.54,1,9.12,1.77,13.7,2.54a2.73,2.73,0,0,1,2.62,2.63c.83,5.68,1.71,11.35,2.74,17a5.09,5.09,0,0,0,1.84,2.9c3.07,2.19,6.26,4.23,9.5,6.17a4,4,0,0,0,2.76.41q8.35-2.07,16.63-4.41c1.81-.51,2.94-.2,4,1.44,2.48,3.84,5.1,7.6,7.76,11.32a2.7,2.7,0,0,1,0,3.69c-3.47,4.66-6.89,9.36-10.21,14.13a4.35,4.35,0,0,0-.68,3c.66,3.71,1.64,7.37,2.3,11.09a4,4,0,0,0,2.26,2.91c4.86,2.78,9.69,5.59,14.57,8.31,1.47.82,2.06,1.71,1.68,3.49-1,4.54-1.77,9.12-2.54,13.7a2.73,2.73,0,0,1-2.62,2.63c-5.68.82-11.35,1.7-17,2.73a5.09,5.09,0,0,0-2.9,1.84c-2.19,3.07-4.23,6.26-6.18,9.49a4,4,0,0,0-.41,2.77q2.07,8.35,4.4,16.64c.51,1.8.23,2.93-1.44,4-3.84,2.47-7.59,5.1-11.31,7.76a2.68,2.68,0,0,1-3.69,0q-7-5.21-14.12-10.22a4.1,4.1,0,0,0-2.74-.71c-3.92.71-7.83,1.57-11.71,2.52a3.74,3.74,0,0,0-2.07,1.58c-3,4.92-5.84,9.88-8.63,14.89-.91,1.63-1.87,2.27-3.82,1.83-4.47-1-9-1.76-13.49-2.5-1.75-.29-2.41-1.16-2.66-2.85-.83-5.75-1.76-11.49-2.74-17.21A3.48,3.48,0,0,0,69,149.83c-3.42-2.34-6.92-4.56-10.4-6.79A8,8,0,0,0,57.34,142.49Z"/><path class="cls-1" d="M140.17,297.46c-3.86,4.62-7.51,9-11.13,13.31-2.38,2.87-2.36,2.88-5.75,1.62-3.82-1.41-7.6-2.91-11.46-4.19-1.89-.63-2.62-1.58-2.55-3.62.21-5.66.26-11.33.21-17a4.69,4.69,0,0,0-1.26-3q-4-4-8.23-7.78a4.27,4.27,0,0,0-2.85-1c-5.79.46-11.57,1-17.33,1.69a2.79,2.79,0,0,1-3.36-1.93c-1.83-4.27-3.81-8.48-5.82-12.66a2.74,2.74,0,0,1,.68-3.65c4.22-4,8.4-8.05,12.48-12.18a4.33,4.33,0,0,0,1.14-2.78c0-3.85-.17-7.7-.44-11.54a4,4,0,0,0-1.26-2.5q-6.51-5.64-13.19-11.06c-1.46-1.18-1.87-2.27-1.13-4.1,1.72-4.24,3.27-8.54,4.77-12.86a2.71,2.71,0,0,1,3-2.09c5.81.15,11.62.24,17.44.21A4.37,4.37,0,0,0,97,199.25c2.66-2.68,5.1-5.58,7.74-8.27a3.67,3.67,0,0,0,1-3.31c-.56-5.63-1-11.28-1.57-16.92-.17-1.68.24-2.67,1.9-3.38,4.27-1.83,8.47-3.81,12.66-5.82a2.74,2.74,0,0,1,3.66.65c4,4.16,7.93,8.29,12,12.31a5.06,5.06,0,0,0,3.18,1.31c3.77,0,7.55-.16,11.32-.43a4,4,0,0,0,2.49-1.25c3.75-4.34,7.45-8.73,11.05-13.19,1.19-1.46,2.29-1.87,4.1-1.13,4.24,1.71,8.55,3.26,12.87,4.77a2.69,2.69,0,0,1,2.09,3c-.15,5.81-.23,11.63-.2,17.44a4.34,4.34,0,0,0,1.14,2.79c2.68,2.66,5.59,5.09,8.27,7.74a4,4,0,0,0,3.53,1.08c5.57-.53,11.14-1,16.7-1.6,1.67-.18,2.67.21,3.38,1.88,1.83,4.27,3.81,8.47,5.82,12.66a2.74,2.74,0,0,1-.63,3.66c-4.17,3.95-8.3,7.93-12.32,12a5.06,5.06,0,0,0-1.31,3.17c0,3.78.15,7.56.42,11.32a4,4,0,0,0,1.26,2.5q6.49,5.64,13.18,11.06c1.46,1.18,1.88,2.27,1.13,4.1-1.72,4.24-3.27,8.54-4.77,12.87a2.69,2.69,0,0,1-3,2.09q-8.72-.23-17.44-.22a4,4,0,0,0-2.64,1c-2.8,2.84-5.5,5.79-8.13,8.8a3.74,3.74,0,0,0-.78,2.49c.43,5.72.92,11.44,1.53,17.14.19,1.86-.22,2.93-2.07,3.7-4.21,1.77-8.35,3.73-12.46,5.73-1.6.77-2.64.44-3.82-.8-4-4.22-8.06-8.37-12.16-12.49a3.47,3.47,0,0,0-2.2-1c-4.14.06-8.28.26-12.42.44A7.07,7.07,0,0,0,140.17,297.46Z"/><g class="cls-2"><path class="cls-3" d="M76.4,86.18V74.75H79v9.43h5v2Z"/><path class="cls-3" d="M85.83,76.48v-.21a21.8,21.8,0,0,0,2-2.35H90.7v.16c-.29.27-.79.67-1.5,1.21s-1.26.93-1.66,1.19Zm2.7,9.7H86V77.44h2.57Z"/><path class="cls-3" d="M94.22,86.33a3.16,3.16,0,0,1-2.61-1.19,6.28,6.28,0,0,1,0-6.66,3.23,3.23,0,0,1,2.66-1.2A3.14,3.14,0,0,1,97,78.56h.08a8.94,8.94,0,0,1-.19-1.74V74h2.58V86.18h-2L97,85h-.11A3,3,0,0,1,94.22,86.33Zm.9-1.9a1.8,1.8,0,0,0,1.45-.53,3,3,0,0,0,.5-1.8v-.26a3.39,3.39,0,0,0-.47-2,1.81,1.81,0,0,0-1.52-.61,1.55,1.55,0,0,0-1.34.68,3.38,3.38,0,0,0-.48,2,3.24,3.24,0,0,0,.48,1.94A1.61,1.61,0,0,0,95.12,84.43Z"/><path class="cls-3" d="M106.43,86.33a5.12,5.12,0,0,1-3.56-1.16,4.22,4.22,0,0,1-1.28-3.3,4.62,4.62,0,0,1,1.18-3.39,5.11,5.11,0,0,1,6.39-.15,3.84,3.84,0,0,1,1.11,2.92V82.4h-6.08a2.24,2.24,0,0,0,.65,1.59,2.42,2.42,0,0,0,1.71.57,7.64,7.64,0,0,0,1.61-.17,8.56,8.56,0,0,0,1.58-.52v1.84a6.23,6.23,0,0,1-1.44.47A9.88,9.88,0,0,1,106.43,86.33ZM106.07,79a1.71,1.71,0,0,0-1.29.48,2.17,2.17,0,0,0-.53,1.37h3.61a1.87,1.87,0,0,0-.5-1.37A1.74,1.74,0,0,0,106.07,79Z"/><path class="cls-3" d="M117.63,77.28a4.24,4.24,0,0,1,.87.07l-.2,2.23a3.19,3.19,0,0,0-.75-.08,2.84,2.84,0,0,0-1.92.59,2,2,0,0,0-.69,1.64v4.45h-2.57V77.44h1.95l.37,1.47h.13A3.36,3.36,0,0,1,116,77.73,3.07,3.07,0,0,1,117.63,77.28Z"/><path class="cls-3" d="M43.82,108.18V96.75h2.61v11.43Z"/><path class="cls-3" d="M58,108.18H55.46v-5.11a2.29,2.29,0,0,0-.36-1.41,1.34,1.34,0,0,0-1.15-.48,1.8,1.8,0,0,0-1.56.67,3.91,3.91,0,0,0-.48,2.22v4.11H49.33V99.44h2l.34,1.12h.15a2.68,2.68,0,0,1,1.18-1,4.47,4.47,0,0,1,1.72-.32,3.46,3.46,0,0,1,2.5.82,3.19,3.19,0,0,1,.85,2.38Z"/><path class="cls-3" d="M67.26,105.58a2.34,2.34,0,0,1-1,2,5.31,5.31,0,0,1-3,.7,9.77,9.77,0,0,1-1.75-.13,6.32,6.32,0,0,1-1.36-.38v-2a9.5,9.5,0,0,0,1.61.53,7.1,7.1,0,0,0,1.59.21c.93,0,1.4-.25,1.4-.75a.63.63,0,0,0-.19-.46,3,3,0,0,0-.64-.4c-.3-.14-.71-.32-1.22-.52a7.8,7.8,0,0,1-1.59-.78,2.31,2.31,0,0,1-.75-.82,2.62,2.62,0,0,1-.23-1.15,2,2,0,0,1,1-1.8,5.08,5.08,0,0,1,2.76-.63,8.49,8.49,0,0,1,3.31.68l-.77,1.72c-.48-.18-.92-.34-1.33-.46a4.45,4.45,0,0,0-1.25-.18q-1.14,0-1.14.57a.67.67,0,0,0,.36.56,10.58,10.58,0,0,0,1.61.69,7.67,7.67,0,0,1,1.62.78,2.35,2.35,0,0,1,.76.82A2.46,2.46,0,0,1,67.26,105.58Z"/><path class="cls-3" d="M73.24,106.43a6.05,6.05,0,0,0,1.62-.27v1.77a6.06,6.06,0,0,1-2.36.4,3,3,0,0,1-2.25-.72,3,3,0,0,1-.7-2.17v-4.21H68.32v-1l1.42-.79.74-1.85h1.64v1.86h2.64v1.79H72.12v4.21a.88.88,0,0,0,.31.75A1.3,1.3,0,0,0,73.24,106.43Z"/><path class="cls-3" d="M76.66,97.18c0-.77.47-1.16,1.4-1.16s1.4.39,1.4,1.16a1.12,1.12,0,0,1-.35.87,1.57,1.57,0,0,1-1,.3C77.13,98.35,76.66,98,76.66,97.18Zm2.68,11H76.77V99.44h2.57Z"/><path class="cls-3" d="M86,106.43a6.05,6.05,0,0,0,1.62-.27v1.77a6.09,6.09,0,0,1-2.36.4,3,3,0,0,1-2.25-.72,3,3,0,0,1-.7-2.17v-4.21H81.09v-1l1.41-.79.75-1.85h1.64v1.86h2.64v1.79H84.89v4.21a.88.88,0,0,0,.31.75A1.28,1.28,0,0,0,86,106.43Z"/><path class="cls-3" d="M96.22,108.18l-.35-1.12h-.13a2.75,2.75,0,0,1-1.17.94,4.34,4.34,0,0,1-1.73.33,3.45,3.45,0,0,1-2.51-.82,3.17,3.17,0,0,1-.84-2.37v-5.7h2.57v5.1a2.32,2.32,0,0,0,.36,1.42,1.37,1.37,0,0,0,1.16.47,1.8,1.8,0,0,0,1.56-.66,3.93,3.93,0,0,0,.48-2.22V99.44h2.57v8.74Z"/><path class="cls-3" d="M104.72,108.33q-4.39,0-4.4-4.48a4.56,4.56,0,0,1,1.2-3.4A4.69,4.69,0,0,1,105,99.28a7,7,0,0,1,2.93.59l-.76,1.84c-.4-.15-.78-.27-1.13-.37a4.07,4.07,0,0,0-1-.14q-2,0-2,2.64c0,1.71.67,2.56,2,2.56a4.68,4.68,0,0,0,2.64-.76v2a4.18,4.18,0,0,1-1.26.51A8,8,0,0,1,104.72,108.33Z"/><path class="cls-3" d="M109.66,97.18c0-.77.47-1.16,1.4-1.16s1.4.39,1.4,1.16a1.09,1.09,0,0,1-.35.87,1.57,1.57,0,0,1-1,.3C110.13,98.35,109.66,98,109.66,97.18Zm2.69,11h-2.58V99.44h2.58Z"/><path class="cls-3" d="M123.61,103.79a4.49,4.49,0,0,1-1.21,3.34,4.61,4.61,0,0,1-3.38,1.2,5,5,0,0,1-2.4-.55A3.79,3.79,0,0,1,115,106.2a5,5,0,0,1-.56-2.41,4.47,4.47,0,0,1,1.21-3.33,4.62,4.62,0,0,1,3.39-1.18,5.1,5.1,0,0,1,2.39.54,3.84,3.84,0,0,1,1.6,1.57A5,5,0,0,1,123.61,103.79Zm-6.52,0a3.48,3.48,0,0,0,.46,2,1.69,1.69,0,0,0,1.5.67,1.66,1.66,0,0,0,1.48-.66,3.52,3.52,0,0,0,.45-2,3.41,3.41,0,0,0-.45-1.94,2,2,0,0,0-3,0A3.42,3.42,0,0,0,117.09,103.79Z"/><path class="cls-3" d="M134.44,108.18h-2.57v-5.11a2.29,2.29,0,0,0-.36-1.41,1.36,1.36,0,0,0-1.16-.48,1.8,1.8,0,0,0-1.56.67,3.91,3.91,0,0,0-.48,2.22v4.11h-2.57V99.44h2l.35,1.12h.14a2.76,2.76,0,0,1,1.19-1,4.38,4.38,0,0,1,1.71-.32,3.46,3.46,0,0,1,2.5.82,3.15,3.15,0,0,1,.85,2.38Z"/><path class="cls-3" d="M143.08,108.18l-.5-1.19h-.06a3.91,3.91,0,0,1-1.34,1.05,4.75,4.75,0,0,1-1.79.29,3,3,0,0,1-2.14-.72,2.64,2.64,0,0,1-.78-2,2.25,2.25,0,0,1,1.05-2,6.46,6.46,0,0,1,3.16-.74l1.64,0v-.39q0-1.32-1.47-1.32a7.1,7.1,0,0,0-2.65.63l-.86-1.61a8.13,8.13,0,0,1,3.61-.79,4.74,4.74,0,0,1,2.91.77,2.71,2.71,0,0,1,1,2.32v5.83Zm-.76-4.05-1,0a3.47,3.47,0,0,0-1.67.37,1.15,1.15,0,0,0-.55,1c0,.67.41,1,1.25,1a2.08,2.08,0,0,0,1.43-.48,1.62,1.62,0,0,0,.53-1.26Z"/><path class="cls-3" d="M150.1,108.18h-2.58V96h2.58Z"/></g><g class="cls-2"><path class="cls-3" d="M124.73,226V214.61h2.61V224h5v2Z"/><path class="cls-3" d="M134.16,216.33v-.21a23.33,23.33,0,0,0,2-2.35H139v.16a18.42,18.42,0,0,1-1.49,1.21c-.71.54-1.26.93-1.66,1.19Zm2.7,9.7h-2.58v-8.74h2.58Z"/><path class="cls-3" d="M142.54,226.18a3.13,3.13,0,0,1-2.61-1.19,6.26,6.26,0,0,1,0-6.66,3.22,3.22,0,0,1,2.66-1.2,3.16,3.16,0,0,1,2.71,1.28h.09a9,9,0,0,1-.2-1.74v-2.8h2.59V226h-2l-.5-1.13h-.11A3,3,0,0,1,142.54,226.18Zm.9-1.89a1.84,1.84,0,0,0,1.45-.53,2.94,2.94,0,0,0,.5-1.81v-.26a3.36,3.36,0,0,0-.47-2,1.79,1.79,0,0,0-1.52-.61,1.55,1.55,0,0,0-1.34.67,3.47,3.47,0,0,0-.47,2,3.21,3.21,0,0,0,.48,1.93A1.61,1.61,0,0,0,143.44,224.29Z"/><path class="cls-3" d="M154.75,226.18a5.09,5.09,0,0,1-3.56-1.16,4.23,4.23,0,0,1-1.28-3.3,4.62,4.62,0,0,1,1.19-3.39,5.11,5.11,0,0,1,6.39-.15,3.85,3.85,0,0,1,1.11,2.92v1.16h-6.08a2.19,2.19,0,0,0,.65,1.58,2.38,2.38,0,0,0,1.7.57,7.51,7.51,0,0,0,1.61-.16,8.47,8.47,0,0,0,1.59-.53v1.85a6.21,6.21,0,0,1-1.44.46A10.07,10.07,0,0,1,154.75,226.18Zm-.36-7.35a1.69,1.69,0,0,0-1.28.48,2.09,2.09,0,0,0-.53,1.36h3.61a1.88,1.88,0,0,0-.5-1.36A1.75,1.75,0,0,0,154.39,218.83Z"/><path class="cls-3" d="M166,217.13a4.24,4.24,0,0,1,.87.07l-.19,2.23a3.33,3.33,0,0,0-.76-.07,2.88,2.88,0,0,0-1.92.58,2,2,0,0,0-.69,1.64V226h-2.57v-8.74h1.95l.38,1.47h.13a3.33,3.33,0,0,1,1.18-1.18A3.09,3.09,0,0,1,166,217.13Z"/><path class="cls-3" d="M97.23,248.18q-4.4,0-4.4-4.47a4.53,4.53,0,0,1,1.2-3.4,4.65,4.65,0,0,1,3.43-1.18,7,7,0,0,1,2.93.59l-.75,1.85c-.41-.15-.79-.28-1.14-.37a3.68,3.68,0,0,0-1-.15q-2,0-2,2.64c0,1.71.67,2.57,2,2.57a5,5,0,0,0,1.37-.19,4.92,4.92,0,0,0,1.27-.57v2a4.42,4.42,0,0,1-1.26.5A7.29,7.29,0,0,1,97.23,248.18Z"/><path class="cls-3" d="M110.85,243.65a4.47,4.47,0,0,1-1.21,3.33,4.61,4.61,0,0,1-3.38,1.2,5,5,0,0,1-2.4-.55,3.73,3.73,0,0,1-1.59-1.58,5,5,0,0,1-.56-2.4,4.44,4.44,0,0,1,1.21-3.33,4.62,4.62,0,0,1,3.39-1.19,5,5,0,0,1,2.39.55,3.84,3.84,0,0,1,1.6,1.57A5,5,0,0,1,110.85,243.65Zm-6.52,0a3.52,3.52,0,0,0,.46,2,1.71,1.71,0,0,0,1.5.66,1.66,1.66,0,0,0,1.48-.66,3.48,3.48,0,0,0,.45-2,3.43,3.43,0,0,0-.45-2,1.73,1.73,0,0,0-1.5-.65,1.69,1.69,0,0,0-1.48.65A3.34,3.34,0,0,0,104.33,243.65Z"/><path class="cls-3" d="M121.42,248h-2.57v-5.1a2.48,2.48,0,0,0-.34-1.42,1.23,1.23,0,0,0-1.08-.47,1.58,1.58,0,0,0-1.43.67,4.1,4.1,0,0,0-.45,2.21V248H113v-8.74h2l.35,1.12h.14a2.61,2.61,0,0,1,1.1-.94,3.76,3.76,0,0,1,1.64-.34,3,3,0,0,1,2.87,1.28h.23a2.44,2.44,0,0,1,1.12-.94,3.85,3.85,0,0,1,1.66-.34,3.45,3.45,0,0,1,2.43.76,3.18,3.18,0,0,1,.82,2.44V248h-2.58v-5.1a2.4,2.4,0,0,0-.34-1.42,1.23,1.23,0,0,0-1.08-.47,1.66,1.66,0,0,0-1.41.62,3.37,3.37,0,0,0-.47,2Z"/><path class="cls-3" d="M136.62,248l-.35-1.12h-.13a2.68,2.68,0,0,1-1.17.94,4.34,4.34,0,0,1-1.73.33,3.47,3.47,0,0,1-2.51-.82,3.17,3.17,0,0,1-.84-2.37v-5.7h2.57v5.11a2.29,2.29,0,0,0,.36,1.41,1.37,1.37,0,0,0,1.16.48,1.8,1.8,0,0,0,1.56-.67,3.93,3.93,0,0,0,.48-2.22v-4.11h2.57V248Z"/><path class="cls-3" d="M150,248h-2.58v-5.1a2.32,2.32,0,0,0-.36-1.42,1.35,1.35,0,0,0-1.15-.47,1.8,1.8,0,0,0-1.56.66,3.84,3.84,0,0,0-.49,2.22V248h-2.57v-8.74h2l.34,1.12h.15a2.68,2.68,0,0,1,1.18-1,4.47,4.47,0,0,1,1.72-.32,3.47,3.47,0,0,1,2.49.82,3.17,3.17,0,0,1,.86,2.38Z"/><path class="cls-3" d="M152.54,237c0-.78.46-1.17,1.4-1.17s1.4.39,1.4,1.17a1.1,1.1,0,0,1-.35.86,1.55,1.55,0,0,1-1.05.31C153,238.21,152.54,237.82,152.54,237Zm2.68,11h-2.57v-8.74h2.57Z"/><path class="cls-3" d="M161.89,246.29a5.73,5.73,0,0,0,1.62-.28v1.78a6.3,6.3,0,0,1-2.36.39,3,3,0,0,1-2.25-.72,3,3,0,0,1-.71-2.17v-4.21H157v-1l1.42-.8.74-1.85h1.65v1.86h2.64v1.79h-2.64v4.21a.88.88,0,0,0,.31.75A1.21,1.21,0,0,0,161.89,246.29Z"/><path class="cls-3" d="M171.4,248l-.49-1.19h-.07a3.68,3.68,0,0,1-1.34,1,4.53,4.53,0,0,1-1.79.29,3,3,0,0,1-2.14-.71,2.65,2.65,0,0,1-.78-2.05,2.25,2.25,0,0,1,1.05-2,6.41,6.41,0,0,1,3.17-.73l1.63,0v-.38c0-.89-.49-1.33-1.46-1.33a7.14,7.14,0,0,0-2.66.63l-.85-1.61a8.24,8.24,0,0,1,3.61-.79,4.78,4.78,0,0,1,2.91.77,2.75,2.75,0,0,1,1,2.33V248Zm-.76-4.05-1,0a3.34,3.34,0,0,0-1.67.38,1.14,1.14,0,0,0-.55,1c0,.68.42,1,1.25,1a2.12,2.12,0,0,0,1.43-.47,1.6,1.6,0,0,0,.53-1.27Z"/><path class="cls-3" d="M181.11,239.13a4.24,4.24,0,0,1,.87.07l-.19,2.23a3.39,3.39,0,0,0-.76-.07,2.88,2.88,0,0,0-1.92.58,2,2,0,0,0-.69,1.64V248h-2.57v-8.74h2l.38,1.47h.12a3.36,3.36,0,0,1,1.19-1.18A3.07,3.07,0,0,1,181.11,239.13Z"/><path class="cls-3" d="M183.58,237c0-.78.47-1.17,1.4-1.17s1.4.39,1.4,1.17a1.07,1.07,0,0,1-.35.86,1.51,1.51,0,0,1-1.05.31C184.05,238.21,183.58,237.82,183.58,237Zm2.68,11h-2.57v-8.74h2.57Z"/><path class="cls-3" d="M197.53,243.65a4.47,4.47,0,0,1-1.21,3.33,4.61,4.61,0,0,1-3.38,1.2,5,5,0,0,1-2.4-.55,3.73,3.73,0,0,1-1.59-1.58,4.89,4.89,0,0,1-.56-2.4,4.44,4.44,0,0,1,1.21-3.33,4.62,4.62,0,0,1,3.39-1.19,5,5,0,0,1,2.39.55,3.84,3.84,0,0,1,1.6,1.57A5,5,0,0,1,197.53,243.65Zm-6.52,0a3.52,3.52,0,0,0,.46,2,1.71,1.71,0,0,0,1.5.66,1.67,1.67,0,0,0,1.48-.66,3.48,3.48,0,0,0,.45-2,3.34,3.34,0,0,0-.46-2,2,2,0,0,0-3,0A3.34,3.34,0,0,0,191,243.65Z"/></g><path class="cls-4" d="M59.18,246.72c-29.46-25.53-47.95-62.28-47.95-103.13a133.88,133.88,0,0,1,1.46-19.73"/><path class="cls-5" d="M15.73,109.21c1.17,7.42,3.83,16.86,7.4,23.1l-10.73-6.5L0,127.68C5.69,123.29,11.78,115.6,15.73,109.21Z"/><path class="cls-4" d="M296.22,192a140.29,140.29,0,0,1-43.82,58.84"/><path class="cls-5" d="M240.21,259.51c4.18-6.24,8.67-15,10.3-22l3.43,12.07,10.36,7.07C257.14,256,247.45,257.51,240.21,259.51Z"/><path class="cls-4" d="M124.93,7.6A155.43,155.43,0,0,1,158.26,4a152.92,152.92,0,0,1,64.12,13.94"/><path class="cls-5" d="M235.65,24.87c-7.46-.88-17.27-.89-24.25.85l9.17-8.56,1.58-12.44C224.82,11.39,230.57,19.34,235.65,24.87Z"/></g></g></svg>