<svg xmlns="http://www.w3.org/2000/svg" width="137.08" height="131.185" viewBox="0 0 137.08 131.185">
  <g id="Grupo_10208" data-name="Grupo 10208" transform="translate(-189.078 -3022.452)">
    <path id="Trazado_4100" data-name="Trazado 4100" d="M254.676,3022.452A65.555,65.555,0,0,0,198.6,3054l11.3,81.966a65.591,65.591,0,1,0,44.776-113.518Zm0,0" fill="#5fc6ff"/>
    <path id="Trazado_4101" data-name="Trazado 4101" d="M200.553,3061.22l-2.372-6.516a65.54,65.54,0,0,0-4.426,8.99Zm0,0" fill="#2d6bd6"/>
    <path id="Trazado_4102" data-name="Trazado 4102" d="M220.708,3116.448l-20.3-55.769L194.04,3063a65.612,65.612,0,0,0,5.8,61.046Zm0,0" fill="#e8eaea"/>
    <path id="Trazado_4103" data-name="Trazado 4103" d="M278.084,3121.673l19.908-71.692c.006-.018.013-.035.018-.053-47.511-17.645-87.457,3.319-87.457,3.319L236,3123.164a56.775,56.775,0,0,1,42-1.123,2.943,2.943,0,0,1,.081-.368Zm0,0" fill="#ffc82e"/>
    <path id="Trazado_4104" data-name="Trazado 4104" d="M278.084,3121.673l8.933-32.167a6.364,6.364,0,0,1-7.416,1.186,60,60,0,0,0-21.2-4.175c-11.475,0-17.974,3.336-25.326,5.748s-9.16-4.221-9.16-4.221l-.323,1.042,12.4,34.078a56.775,56.775,0,0,1,42-1.123,2.943,2.943,0,0,1,.081-.368Zm0,0" fill="#f7b126"/>
    <path id="Trazado_4105" data-name="Trazado 4105" d="M260.628,3120.821a2.223,2.223,0,0,1-2.223-2.223v-75.737a2.223,2.223,0,0,1,4.447,0V3118.6a2.223,2.223,0,0,1-2.224,2.223Zm0,0" fill="#ffe266"/>
    <path id="Trazado_4106" data-name="Trazado 4106" d="M254.809,3120.9a2.223,2.223,0,0,1-2.212-2.026l-6.678-75.345a2.223,2.223,0,1,1,4.429-.392l6.679,75.344a2.224,2.224,0,0,1-2.019,2.411c-.067,0-.132.008-.2.008Zm0,0" fill="#ffe266"/>
    <path id="Trazado_4107" data-name="Trazado 4107" d="M249.034,3121.588a2.224,2.224,0,0,1-2.186-1.834L233.582,3045.5a2.224,2.224,0,0,1,4.378-.782l13.265,74.259a2.221,2.221,0,0,1-1.8,2.578,2.053,2.053,0,0,1-.394.037Zm0,0" fill="#ffe266"/>
    <path id="Trazado_4108" data-name="Trazado 4108" d="M243.1,3122.921a2.226,2.226,0,0,1-2.145-1.643l-19.674-72.471a2.223,2.223,0,1,1,4.29-1.166l19.675,72.473a2.224,2.224,0,0,1-2.146,2.807Zm0,0" fill="#ffe266"/>
    <path id="Trazado_4109" data-name="Trazado 4109" d="M266.409,3121.335c-.065,0-.132,0-.2-.008a2.223,2.223,0,0,1-2.018-2.411l6.678-75.334a2.223,2.223,0,1,1,4.429.393l-6.678,75.333a2.222,2.222,0,0,1-2.212,2.027Zm0,0" fill="#ffe266"/>
    <path id="Trazado_4110" data-name="Trazado 4110" d="M272.072,3122.436a2.179,2.179,0,0,1-.394-.035,2.223,2.223,0,0,1-1.8-2.58l13.25-74.171a2.224,2.224,0,0,1,4.378.782L274.257,3120.6a2.224,2.224,0,0,1-2.185,1.833Zm0,0" fill="#ffe266"/>
    <path id="Trazado_4111" data-name="Trazado 4111" d="M204.624,3130.433a66.222,66.222,0,0,0,5.583,5.825l15.591-5.676-2.524-6.937Zm0,0" fill="#2050bc"/>
    <path id="Trazado_4112" data-name="Trazado 4112" d="M204.785,3130.622l18.618-6.775-2.874-7.9-20.987,7.637a65.779,65.779,0,0,0,5.243,7.033Zm0,0" fill="#d4d8d8"/>
    <path id="Trazado_4113" data-name="Trazado 4113" d="M195.4,3116.155l22.256-8.1-2.874-7.9-22.491,8.186a65.124,65.124,0,0,0,3.109,7.81Zm0,0" fill="#d4d8d8"/>
    <path id="Trazado_4114" data-name="Trazado 4114" d="M190.205,3100.162l21.7-7.9-2.874-7.9-19.853,7.226a65.614,65.614,0,0,0,1.025,8.569Zm0,0" fill="#d4d8d8"/>
    <path id="Trazado_4115" data-name="Trazado 4115" d="M206.159,3076.472l-2.874-7.9-12.5,4.548a65.43,65.43,0,0,0-1.479,9.481Zm0,0" fill="#d4d8d8"/>
    <path id="Trazado_4116" data-name="Trazado 4116" d="M211.145,3052.95a3.566,3.566,0,0,0-4.558-2.125l-7.771,2.828c-.341.552-.677,1.108-1,1.672l27.46,75.447,9.193-3.346a3.568,3.568,0,0,0,2.126-4.559Zm0,0" fill="#2050bc"/>
    <path id="Trazado_4117" data-name="Trazado 4117" d="M323.554,3053.257l-21.774-6.048a3.568,3.568,0,0,0-4.38,2.476l-19.91,71.691a3.57,3.57,0,0,0,2.476,4.38l21.775,6.046a3.568,3.568,0,0,0,4.38-2.475l19.908-71.692a3.565,3.565,0,0,0-2.475-4.378Zm0,0" fill="#e8eaea"/>
    <path id="Trazado_4118" data-name="Trazado 4118" d="M307.752,3097.63a2.056,2.056,0,0,0-1.981-.788,4.272,4.272,0,0,1-4.442-1.623,2.111,2.111,0,0,0-2.481-.724c-9.674,3.787-12.717-4.234-12.717-4.234l-8.64,31.115a3.568,3.568,0,0,0,2.475,4.38l21.775,6.046a3.568,3.568,0,0,0,4.38-2.475l8.291-29.857c-4.044.571-5.868-.774-6.66-1.84Zm0,0" fill="#d4d8d8"/>
    <path id="Trazado_4119" data-name="Trazado 4119" d="M308.59,3120.432l14.97-53.9-2.848-.79a11.938,11.938,0,0,0-14.653,8.283l-8.6,30.965a11.94,11.94,0,0,0,8.284,14.653Zm0,0" fill="#d4d8d8"/>
    <path id="Trazado_4120" data-name="Trazado 4120" d="M307.752,3097.63a2.056,2.056,0,0,0-1.981-.788,4.272,4.272,0,0,1-4.442-1.623,2.109,2.109,0,0,0-.955-.724l-2.915,10.493a11.94,11.94,0,0,0,8.284,14.653l2.847.791,5.822-20.963c-4.044.572-5.868-.773-6.66-1.839Zm0,0" fill="#b7b7b7"/>
    <path id="Trazado_4121" data-name="Trazado 4121" d="M313.087,3079.313a2.223,2.223,0,1,1,2.043-2.39,2.225,2.225,0,0,1-2.043,2.39Zm0,0" fill="#e8eaea"/>
    <path id="Trazado_4122" data-name="Trazado 4122" d="M311.089,3086.51a2.222,2.222,0,1,1,2.042-2.39,2.218,2.218,0,0,1-2.042,2.39Zm0,0" fill="#e8eaea"/>
    <path id="Trazado_4123" data-name="Trazado 4123" d="M309.092,3093.711a2.224,2.224,0,1,1,2.04-2.39,2.227,2.227,0,0,1-2.04,2.39Zm0,0" fill="#e8eaea"/>
    <path id="Trazado_4124" data-name="Trazado 4124" d="M307.093,3100.909a2.224,2.224,0,1,1,2.042-2.394,2.225,2.225,0,0,1-2.042,2.394Zm0,0" fill="#e8eaea"/>
    <path id="Trazado_4125" data-name="Trazado 4125" d="M305.094,3108.1a2.222,2.222,0,1,1,2.032-1.952,2.218,2.218,0,0,1-2.032,1.952Zm0,0" fill="#e8eaea"/>
    <path id="Trazado_4126" data-name="Trazado 4126" d="M240.956,3121.278a2.223,2.223,0,1,0,4.291-1.164l-7.96-29.32a2.952,2.952,0,0,1-4.207,1.47Zm0,0" fill="#ffc82e"/>
    <path id="Trazado_4127" data-name="Trazado 4127" d="M246.848,3119.754a2.224,2.224,0,0,0,2.186,1.834,2.053,2.053,0,0,0,.394-.037,2.221,2.221,0,0,0,1.8-2.578l-5.519-30.894a2.926,2.926,0,0,1-4.29,1.269Zm0,0" fill="#ffc82e"/>
    <path id="Trazado_4128" data-name="Trazado 4128" d="M249.79,3087.212l2.807,31.665a2.223,2.223,0,0,0,2.212,2.026c.067,0,.132,0,.2-.008a2.224,2.224,0,0,0,2.019-2.411l-2.821-31.809a2.87,2.87,0,0,1-4.416.537Zm0,0" fill="#ffc82e"/>
    <path id="Trazado_4129" data-name="Trazado 4129" d="M260.628,3120.821a2.223,2.223,0,0,0,2.224-2.223v-31.88a3.063,3.063,0,0,1-4.447-.2V3118.6a2.223,2.223,0,0,0,2.223,2.223Zm0,0" fill="#ffc82e"/>
    <path id="Trazado_4130" data-name="Trazado 4130" d="M266.211,3121.327c.066.006.133.008.2.008a2.224,2.224,0,0,0,2.213-2.027l2.764-31.19a2.86,2.86,0,0,1-4.386-.877l-2.808,31.675a2.223,2.223,0,0,0,2.019,2.411Zm0,0" fill="#ffc82e"/>
    <path id="Trazado_4131" data-name="Trazado 4131" d="M275.352,3089.193l-5.472,30.628a2.223,2.223,0,0,0,1.8,2.58,2.179,2.179,0,0,0,.394.035,2.223,2.223,0,0,0,2.185-1.833l5.344-29.911c-3.421,1.753-4.249-1.5-4.249-1.5Zm0,0" fill="#ffc82e"/>
    <path id="Trazado_4132" data-name="Trazado 4132" d="M224.453,3089.51c-.466.953-4.333,8.124-13.118,2.961l13.94,38.3,9.193-3.346a3.567,3.567,0,0,0,2.125-4.559Zm0,0" fill="#12379e"/>
  </g>
</svg>
