<svg xmlns="http://www.w3.org/2000/svg" width="218.808" height="210.683" viewBox="0 0 218.808 210.683">
  <g id="Grupo_10247" data-name="Grupo 10247" transform="translate(-938.853 -6496.244)">
    <path id="Trazado_4380" data-name="Trazado 4380" d="M1073.55,6619.769c-3.551-3.48-7.085-6.865-8.118-12.635-2.545-14.22,3.7-15.9.583-30.021s-13.564-11.671-16.678-25.788a17.91,17.91,0,0,1-.431-4.964,36.639,36.639,0,0,0,1.751-6.4c.073-.383.133-.775.185-1.154a37.17,37.17,0,1,0-69.422,12.423c.18.338.369.663.56,1l.012.009a36.9,36.9,0,0,0,3.878,5.424,18.227,18.227,0,0,1,1.3,4.786c1.975,14.322-8.664,15.648-6.689,29.97s8.414,13.736,10.958,27.956c1.033,5.77-1.108,10.17-3.243,14.668-2.112,4.5-4.217,9.1-3.118,15.244a32.39,32.39,0,0,0,37.6,26.182l32.912-5.89a32.38,32.38,0,0,0,26.172-37.594C1080.663,6626.846,1077.092,6623.261,1073.55,6619.769Z" fill="#40327a"/>
    <rect id="Rectángulo_4164" data-name="Rectángulo 4164" width="17.378" height="34.756" rx="1.933" transform="matrix(-0.956, -0.294, 0.294, -0.956, 985.029, 6567.902)" fill="#bf307b"/>
    <path id="Trazado_4381" data-name="Trazado 4381" d="M939.474,6615.975l24.491-64.3h0l4.271-11.214a7,7,0,1,1,11.916,6.968l.006,0-6.93,8.325-15.736,65.77Z" fill="#ff95a9"/>
    <path id="Trazado_4382" data-name="Trazado 4382" d="M984.027,6631.919a12.964,12.964,0,0,1-9.91-17.938l-.013-.006,10.812-25.284.008,0a13,13,0,0,1,12.507-7.88l48.3,2.047a8,8,0,0,1,7.33,10.272l-22.435,75.487h0a23.251,23.251,0,1,1-46.46-1.97h0Z" fill="#ffc7bd"/>
    <path id="Trazado_4383" data-name="Trazado 4383" d="M939.474,6615.975h0l21.178-55.6,10.689,3.29-8.579,35.865,27.376-16.688,12.059,22.973-50.153,22.283-.039-.072a9.44,9.44,0,0,1-12.528-12.047Z" fill="#ffc7bd"/>
    <path id="Trazado_4384" data-name="Trazado 4384" d="M986.932,6549.193l3.26-31.194,37.547,1.592-.806,18.994,1,.043a5,5,0,0,1-.423,9.991l-1-.043-.269,6.345-.465,10.957-.092,2.181-.591,13.927,9.984.424-36.219,21.618.979-23.112,3.276.138h0l.59-13.927-1.339-.057A16.206,16.206,0,0,1,986.932,6549.193Z" fill="#ff95a9"/>
    <path id="Trazado_4385" data-name="Trazado 4385" d="M1081.019,6623.84l42.787-32.736,11.857-9.073.017.02a4.963,4.963,0,0,1,1.325-.712l0-.022,11.3-4.048v.007a7,7,0,1,1,2.459,13.583l-9.988.138-47.361,47.055Z" fill="#ff95a9"/>
    <path id="Trazado_4386" data-name="Trazado 4386" d="M1034.384,6587.939a12.92,12.92,0,0,1,19.478-1.515l.009-.01,33.493,32.568,40.905-31.295,7.348,8.432-42.209,41.936v0a9.44,9.44,0,0,1-12.343.828l-.1.12-43.952-32.866h0A13,13,0,0,1,1034.384,6587.939Z" fill="#ffc7bd"/>
    <rect id="Rectángulo_4165" data-name="Rectángulo 4165" width="4.752" height="2" transform="translate(1119.863 6592.86) rotate(-37.426)" fill="#ff95a9"/>
    <rect id="Rectángulo_4166" data-name="Rectángulo 4166" width="36.283" height="2" transform="translate(1086.756 6618.188) rotate(-37.417)" fill="#ff95a9"/>
    <path id="Trazado_4387" data-name="Trazado 4387" d="M1000.111,6556.306a3.5,3.5,0,0,0,.774-6.913l-3.706-.848-.446,1.949,3.706.848a1.5,1.5,0,0,1-.669,2.925l-.447,1.949A3.47,3.47,0,0,0,1000.111,6556.306Z" fill="#e5659b"/>
    <rect id="Rectángulo_4167" data-name="Rectángulo 4167" width="7.26" height="2" transform="translate(976.689 6605.384) rotate(-66.847)" fill="#ff95a9"/>
    <path id="Trazado_4388" data-name="Trazado 4388" d="M986.078,6633.085a13.839,13.839,0,0,0,9.651-3.889l-1.384-1.443a11.982,11.982,0,0,1-19.308-13.379l.393-.919-.014-.006,1.671-3.908-1.839-.787-2.457,5.746.046.02a13.988,13.988,0,0,0,12.631,18.552C985.672,6633.081,985.875,6633.085,986.078,6633.085Z" fill="#ff95a9"/>
    <rect id="Rectángulo_4168" data-name="Rectángulo 4168" width="2" height="13.438" transform="translate(983.08 6631.826)" fill="#ff95a9"/>
    <path id="Trazado_4389" data-name="Trazado 4389" d="M1026.933,6538.585l1,.043,1.224-28.859-29.74-1.261a14.234,14.234,0,0,0-14.824,13.618l-.024.565,1,.043a39.123,39.123,0,0,1,23.234,8.9h0a30.535,30.535,0,0,0,18.131,6.948Z" fill="#40327a"/>
    <rect id="Rectángulo_4169" data-name="Rectángulo 4169" width="2" height="3.063" transform="translate(983.205 6648.326)" fill="#ff95a9"/>
    <path id="Trazado_4390" data-name="Trazado 4390" d="M1046.535,6706.927v-10a34.626,34.626,0,0,0-13.381-27.343l-2.506-1.947h-46.5a57.641,57.641,0,0,0-5.995,25.595v13.693Z" fill="#8b77e8"/>
    <rect id="Rectángulo_4170" data-name="Rectángulo 4170" width="25.434" height="2" transform="translate(984.146 6666.576)" fill="#624ac9"/>
  </g>
</svg>
